<?xml version="1.0" encoding="UTF-8" standalone="no"?>
<!DOCTYPE svg PUBLIC "-//W3C//DTD SVG 20010904//EN"
              "http://www.w3.org/TR/2001/REC-SVG-20010904/DTD/svg10.dtd">

<svg xmlns="http://www.w3.org/2000/svg"
     width="1.22in" height="1.22in"
     viewBox="0 0 366 366">
  <path id="Auswahl"
        fill="black" stroke="black" stroke-width="1"
        d="M 177.00,61.21
           C 177.00,61.21 167.00,62.28 167.00,62.28
             167.00,62.28 139.00,67.37 139.00,67.37
             101.28,76.81 64.83,97.07 41.74,129.00
             29.06,146.55 20.03,170.18 20.00,192.00
             19.89,264.93 83.07,310.69 149.00,323.80
             158.27,325.64 173.71,327.89 183.00,328.00
             219.26,328.42 250.93,323.39 284.00,307.68
             298.47,300.81 319.01,286.57 329.91,275.00
             340.56,263.70 348.26,252.03 354.77,238.00
             361.83,222.75 364.19,206.66 364.00,190.00
             363.85,177.76 359.46,161.08 354.29,150.00
             332.12,102.48 284.93,75.13 235.00,65.20
             224.73,63.16 209.35,61.02 199.00,61.21
             199.00,61.21 177.00,61.21 177.00,61.21 Z
           M 133.00,134.74
           C 137.10,134.89 142.07,138.29 141.30,143.00
             140.92,145.25 137.41,149.80 136.07,152.00
             133.63,155.99 132.34,159.50 131.16,164.00
             128.02,175.89 128.72,187.72 133.90,199.00
             133.90,199.00 141.01,211.00 141.01,211.00
             142.29,214.82 138.76,219.45 135.00,220.26
             131.82,220.94 129.31,218.14 127.46,215.98
             123.59,211.46 119.63,204.56 117.46,199.00
             111.40,183.49 113.04,163.58 120.78,149.00
             123.66,143.58 127.34,137.43 133.00,134.74 Z
           M 320.00,204.03
           C 320.00,204.03 327.00,204.03 327.00,204.03
             332.32,203.76 338.07,201.25 342.77,205.43
             347.39,209.53 346.01,220.16 346.00,226.00
             346.00,227.99 346.23,231.81 344.98,233.40
             343.99,234.65 336.20,238.34 336.00,228.00
             335.86,220.39 336.43,219.98 335.00,212.00
             332.53,213.37 330.71,214.21 329.60,217.04
             328.08,220.93 330.10,230.72 327.98,233.40
             325.77,236.19 320.30,235.19 319.16,231.85
             319.16,231.85 319.16,207.00 319.16,207.00
             316.69,210.43 311.64,218.37 307.99,219.92
             303.69,221.74 297.99,216.35 298.70,212.00
             299.09,209.68 304.11,203.03 305.63,200.00
             308.29,194.66 310.57,184.97 310.91,179.00
             311.32,171.76 308.17,159.28 304.54,153.00
             302.12,148.83 296.64,143.83 299.62,139.02
             307.72,125.90 318.11,146.37 321.22,153.00
             328.13,167.73 327.90,189.72 320.00,204.03 Z
           M 89.00,203.00
           C 97.22,203.08 97.82,204.84 100.42,204.64
             102.69,204.48 104.87,202.61 110.00,203.11
             121.56,204.25 119.05,218.78 119.00,227.00
             118.99,228.82 119.15,231.93 117.98,233.40
             116.99,234.65 109.20,238.34 109.00,228.00
             108.86,220.39 109.43,219.98 108.00,212.00
             105.53,213.37 103.71,214.21 102.60,217.04
             101.08,220.93 103.10,230.72 100.98,233.40
             99.15,235.71 93.93,235.40 92.60,232.69
             92.60,232.69 91.00,212.00 91.00,212.00
             88.53,213.37 86.71,214.21 85.60,217.04
             84.08,220.93 86.10,230.72 83.98,233.40
             81.77,236.19 76.30,235.19 75.16,231.85
             75.16,231.85 75.16,206.00 75.16,206.00
             61.69,206.00 49.38,204.91 40.79,193.00
             36.73,187.36 35.08,180.85 35.00,174.00
             34.96,170.00 34.83,165.93 35.67,162.00
             39.07,146.07 52.87,135.19 69.00,135.00
             73.08,134.96 82.44,134.63 85.69,136.98
             88.38,138.93 89.23,147.90 86.40,149.94
             84.32,151.44 77.65,149.56 75.00,149.30
             68.89,148.70 61.52,151.38 57.53,156.10
             46.14,169.59 53.84,193.27 74.00,191.82
             77.07,191.60 85.08,189.29 87.40,191.04
             89.68,192.76 89.00,200.24 89.00,203.00 Z
           M 259.00,135.30
           C 269.75,134.23 280.39,135.05 288.99,142.33
             303.25,154.40 304.03,183.78 290.91,196.91
             283.04,204.78 274.58,206.12 264.00,206.00
             244.55,205.77 232.23,192.11 232.00,173.00
             231.90,163.82 232.68,154.59 238.53,147.00
             243.97,139.95 250.49,136.91 259.00,135.30 Z
           M 164.00,163.00
           C 164.00,163.00 190.00,163.00 190.00,163.00
             190.00,163.00 190.00,145.00 190.00,145.00
             190.00,143.01 189.77,139.19 191.02,137.60
             192.84,135.30 203.16,135.30 204.98,137.60
             206.23,139.19 206.00,143.01 206.00,145.00
             206.00,145.00 206.00,196.00 206.00,196.00
             206.00,197.99 206.23,201.81 204.98,203.40
             203.16,205.70 192.84,205.70 191.02,203.40
             189.85,201.92 190.01,198.82 190.00,197.00
             190.00,197.00 190.00,177.00 190.00,177.00
             190.00,177.00 164.00,177.00 164.00,177.00
             164.00,177.00 164.00,196.00 164.00,196.00
             164.00,197.99 164.23,201.81 162.98,203.40
             161.16,205.70 150.84,205.70 149.02,203.40
             147.77,201.81 148.00,197.99 148.00,196.00
             148.00,196.00 148.00,145.00 148.00,145.00
             148.00,143.01 147.77,139.19 149.02,137.60
             150.84,135.30 161.16,135.30 162.98,137.60
             164.15,139.08 163.99,142.18 164.00,144.00
             164.00,144.00 164.00,163.00 164.00,163.00 Z
           M 263.00,149.53
           C 250.48,153.25 247.28,165.24 249.82,177.00
             251.79,186.13 258.97,193.67 269.00,191.47
             289.78,186.92 287.14,146.13 263.00,149.53 Z
           M 225.00,226.00
           C 228.84,226.14 232.98,226.63 231.67,231.86
             230.77,235.43 226.90,234.98 224.00,235.00
             219.64,235.03 205.12,237.22 206.37,229.98
             207.31,224.57 214.90,222.50 220.00,213.00
             213.66,211.60 210.82,213.54 208.31,212.39
             205.32,211.01 205.08,205.35 211.02,203.57
             220.69,200.68 230.87,204.60 229.89,216.00
             229.51,220.51 227.74,222.62 225.00,226.00 Z" />
</svg>
