<?xml version="1.0" encoding="UTF-8" standalone="no"?>
<!DOCTYPE svg PUBLIC "-//W3C//DTD SVG 20010904//EN"
              "http://www.w3.org/TR/2001/REC-SVG-20010904/DTD/svg10.dtd">

<svg xmlns="http://www.w3.org/2000/svg"
     width="1.22in" height="1.22in"
     viewBox="0 0 366 366">
  <path id="Auswahl"
        fill="black" stroke="black" stroke-width="1"
        d="M 184.00,35.62
           C 174.93,38.23 172.59,49.19 169.14,57.00
             169.14,57.00 142.99,116.00 142.99,116.00
             142.99,116.00 127.51,150.00 127.51,150.00
             127.51,150.00 111.96,186.00 111.96,186.00
             107.95,195.06 103.54,200.60 100.90,211.00
             93.84,238.74 99.96,268.01 120.04,289.00
             127.20,296.49 133.76,301.56 143.00,306.24
             153.87,311.76 167.75,315.85 180.00,316.00
             193.37,316.15 205.59,314.44 218.00,309.13
             227.08,305.24 235.85,299.80 243.00,292.96
             265.48,271.47 273.65,242.10 266.50,212.00
             264.73,204.57 260.92,197.92 257.86,191.00
             257.86,191.00 248.42,168.00 248.42,168.00
             248.42,168.00 226.58,115.00 226.58,115.00
             226.58,115.00 201.28,54.00 201.28,54.00
             197.60,45.47 195.38,35.20 184.00,35.62 Z
           M 131.00,208.51
           C 136.27,208.90 139.52,210.71 141.20,216.00
             142.28,219.40 141.87,223.39 142.44,227.00
             143.88,236.22 146.28,241.78 152.32,249.00
             156.64,254.16 160.56,257.31 166.00,261.12
             170.50,264.26 175.42,267.03 176.38,273.00
             177.44,279.62 171.60,285.41 165.00,284.38
             161.14,283.78 156.27,280.18 153.00,278.00
             149.70,275.80 145.94,273.45 143.01,270.82
             137.10,265.49 127.92,252.49 125.13,245.00
             125.13,245.00 121.80,231.00 121.80,231.00
             120.04,221.80 119.56,210.60 131.00,208.51 Z" />
</svg>
