<?xml version="1.0" encoding="UTF-8" standalone="no"?>
<!DOCTYPE svg PUBLIC "-//W3C//DTD SVG 20010904//EN"
              "http://www.w3.org/TR/2001/REC-SVG-20010904/DTD/svg10.dtd">

<svg xmlns="http://www.w3.org/2000/svg"
     width="4.06667in" height="4.06667in"
     viewBox="0 0 366 366">
  <path id="Auswahl"
        fill="black" stroke="black" stroke-width="1"
        d="M 168.00,238.00
           C 193.52,248.13 226.68,246.30 250.00,231.30
             272.43,216.88 290.68,190.35 291.00,163.00
             291.00,163.00 291.00,149.00 291.00,149.00
             290.91,130.17 281.88,109.53 268.96,96.00
             260.60,87.25 253.91,81.22 243.00,75.76
             225.36,66.93 214.06,66.78 195.00,67.00
             184.04,67.13 171.75,70.88 162.00,75.76
             136.09,88.72 114.35,118.37 114.00,148.00
             113.84,161.59 113.49,170.73 117.75,184.00
             121.33,195.18 127.94,206.52 136.04,215.00
             138.54,217.62 146.76,224.20 145.82,227.96
             145.31,229.98 141.66,232.94 140.12,234.51
             135.72,239.00 131.84,243.93 128.15,249.00
             117.14,264.16 107.98,280.99 102.51,299.00
             100.78,305.03 96.98,321.67 102.51,326.40
             110.46,333.36 125.35,318.36 130.28,312.91
             143.05,298.81 154.65,279.79 161.42,262.00
             164.40,254.18 167.61,246.46 168.00,238.00 Z
           M 203.00,85.71
           C 214.15,86.26 225.15,88.55 235.00,94.04
             276.23,117.02 285.31,170.84 251.58,204.58
             245.99,210.16 239.17,215.14 232.00,218.51
             223.26,222.62 213.63,224.89 204.00,225.26
             195.89,225.57 186.61,223.71 179.00,220.95
             170.58,217.88 162.69,213.20 156.09,207.13
             119.56,173.54 127.22,116.71 171.00,93.49
             180.80,88.29 191.99,85.95 203.00,85.71 Z" />
</svg>
