<?xml version="1.0" encoding="UTF-8" standalone="no"?>
<!DOCTYPE svg PUBLIC "-//W3C//DTD SVG 20010904//EN"
              "http://www.w3.org/TR/2001/REC-SVG-20010904/DTD/svg10.dtd">

<svg xmlns="http://www.w3.org/2000/svg"
     width="4.06667in" height="4.06667in"
     viewBox="0 0 366 366">
  <path id="Auswahl"
        fill="black" stroke="black" stroke-width="1"
        d="M 140.00,171.00
           C 133.13,171.00 116.43,169.66 112.01,175.39
             106.39,182.67 113.33,194.63 117.32,201.00
             117.32,201.00 154.19,261.00 154.19,261.00
             154.19,261.00 167.00,282.00 167.00,282.00
             170.93,288.52 173.48,293.78 182.00,293.95
             184.61,294.00 186.74,293.69 188.99,292.26
             194.49,288.77 205.16,269.58 209.19,263.00
             209.19,263.00 240.81,211.00 240.81,211.00
             245.57,203.31 253.57,193.04 253.96,184.00
             254.06,181.62 254.06,178.30 252.83,176.21
             248.80,169.42 232.04,171.00 225.00,171.00
             225.00,171.00 225.00,89.00 225.00,89.00
             224.87,78.02 222.61,73.02 211.00,73.00
             211.00,73.00 154.00,73.00 154.00,73.00
             141.82,73.02 140.02,76.27 140.00,88.00
             140.00,88.00 140.00,171.00 140.00,171.00 Z" />
</svg>
