<?xml version="1.0" encoding="UTF-8" standalone="no"?>
<!DOCTYPE svg PUBLIC "-//W3C//DTD SVG 20010904//EN"
              "http://www.w3.org/TR/2001/REC-SVG-20010904/DTD/svg10.dtd">

<svg xmlns="http://www.w3.org/2000/svg"
     width="0.633333in" height="0.666667in"
     viewBox="0 0 190 200">
  <path id="Auswahl"
        fill="black" stroke="black" stroke-width="1"
        d="M 78.00,57.00
           C 78.00,57.00 61.00,57.00 61.00,57.00
             61.00,57.00 53.42,58.02 53.42,58.02
             53.42,58.02 49.58,66.00 49.58,66.00
             49.58,66.00 43.67,86.00 43.67,86.00
             43.67,86.00 27.12,142.00 27.12,142.00
             27.12,142.00 18.56,171.00 18.56,171.00
             18.56,171.00 14.00,186.00 14.00,186.00
             19.83,187.66 26.90,187.00 33.00,187.00
             33.00,187.00 67.00,187.00 67.00,187.00
             67.00,187.00 144.00,187.00 144.00,187.00
             152.40,187.00 175.28,187.91 182.00,186.00
             182.00,186.00 175.28,163.00 175.28,163.00
             175.28,163.00 152.34,87.00 152.34,87.00
             152.34,87.00 146.02,66.00 146.02,66.00
             146.02,66.00 142.49,58.02 142.49,58.02
             142.49,58.02 135.00,57.00 135.00,57.00
             135.00,57.00 118.00,57.00 118.00,57.00
             119.72,53.35 121.82,49.11 121.82,45.00
             121.81,41.96 120.57,38.66 119.18,36.00
             108.27,15.23 73.38,23.15 74.26,46.00
             74.42,50.11 76.07,53.48 78.00,57.00 Z
           M 97.00,35.42
           C 101.27,35.43 104.71,36.26 107.26,40.06
             111.65,46.58 108.12,56.10 100.00,56.89
             85.39,58.31 81.84,38.67 97.00,35.42 Z
           M 135.00,111.00
           C 127.89,110.42 121.50,108.35 115.04,112.85
             106.39,118.88 105.43,132.07 114.04,138.49
             118.14,141.54 123.18,141.00 128.00,141.00
             128.00,141.00 128.00,131.00 128.00,131.00
             128.00,131.00 118.00,131.00 118.00,131.00
             118.00,131.00 118.00,124.00 118.00,124.00
             118.00,124.00 136.00,124.00 136.00,124.00
             136.00,124.00 136.00,147.00 136.00,147.00
             131.70,147.57 130.53,147.94 126.00,148.00
             121.07,148.05 115.63,148.41 111.00,146.52
             93.45,139.34 95.98,111.44 113.00,104.61
             116.59,103.01 131.44,101.57 134.01,104.61
             135.18,106.19 134.98,109.21 135.00,111.00 Z
           M 71.00,104.00
           C 71.00,104.00 71.00,122.00 71.00,122.00
             71.00,122.00 87.17,104.60 87.17,104.60
             87.17,104.60 96.00,104.00 96.00,104.00
             96.00,104.00 85.42,118.00 85.42,118.00
             85.42,118.00 80.74,124.72 80.74,124.72
             80.74,124.72 84.43,131.01 84.43,131.01
             84.43,131.01 98.00,147.00 98.00,147.00
             98.00,147.00 88.09,146.40 88.09,146.40
             88.09,146.40 71.00,129.00 71.00,129.00
             71.00,129.00 71.00,147.00 71.00,147.00
             71.00,147.00 62.00,147.00 62.00,147.00
             62.00,147.00 62.00,104.00 62.00,104.00
             62.00,104.00 71.00,104.00 71.00,104.00 Z" />
</svg>
