<?xml version="1.0" encoding="UTF-8" standalone="no"?>
<!DOCTYPE svg PUBLIC "-//W3C//DTD SVG 20010904//EN"
              "http://www.w3.org/TR/2001/REC-SVG-20010904/DTD/svg10.dtd">

<svg xmlns="http://www.w3.org/2000/svg"
     width="1.22in" height="1.22in"
     viewBox="0 0 366 366">
  <path id="Auswahl #1"
        fill="black" stroke="black" stroke-width="1"
        d="M 69.00,40.00
           C 69.00,40.00 43.00,40.00 43.00,40.00
             43.00,40.00 29.71,85.00 29.71,85.00
             29.71,85.00 12.72,142.00 12.72,142.00
             12.72,142.00 5.00,168.00 5.00,168.00
             5.00,168.00 25.00,169.00 25.00,169.00
             25.00,169.00 59.00,169.00 59.00,169.00
             59.00,169.00 172.00,169.00 172.00,169.00
             172.00,169.00 162.00,132.00 162.00,132.00
             162.00,132.00 135.00,40.00 135.00,40.00
             135.00,40.00 108.00,40.00 108.00,40.00
             111.33,34.61 112.24,32.44 111.96,26.00
             110.88,1.45 71.22,-1.29 65.68,24.00
             64.28,30.40 67.34,34.14 69.00,40.00 Z
           M 87.00,17.41
           C 103.06,15.96 104.28,36.87 91.00,39.43
             79.13,41.72 71.10,22.48 87.00,17.41 Z
           M 275.04,18.84
           C 269.16,21.91 264.14,32.29 260.33,38.00
             260.33,38.00 229.31,86.00 229.31,86.00
             229.31,86.00 115.00,262.00 115.00,262.00
             115.00,262.00 78.69,318.00 78.69,318.00
             76.14,321.96 65.34,335.47 74.11,338.16
             80.25,340.04 86.20,327.25 89.00,323.00
             89.00,323.00 124.00,269.00 124.00,269.00
             124.00,269.00 246.67,80.00 246.67,80.00
             246.67,80.00 276.42,34.00 276.42,34.00
             279.28,29.42 286.60,18.08 275.04,18.84 Z
           M 126.00,93.00
           C 118.66,92.41 111.57,90.37 105.07,95.57
             97.49,101.69 96.72,114.43 105.07,120.30
             109.31,123.30 114.07,123.00 119.00,123.00
             119.00,123.00 119.00,113.00 119.00,113.00
             119.00,113.00 109.00,113.00 109.00,113.00
             109.00,113.00 109.00,106.00 109.00,106.00
             109.00,106.00 128.00,106.00 128.00,106.00
             128.00,106.00 128.00,120.00 128.00,120.00
             127.99,122.51 128.36,126.28 126.40,128.15
             124.42,130.03 117.75,130.85 115.00,130.96
             101.43,131.49 90.62,124.30 90.04,110.00
             89.61,99.39 94.48,89.76 105.00,86.11
             108.44,84.91 122.65,83.82 125.01,86.74
             126.18,88.19 125.98,91.21 126.00,93.00 Z
           M 62.00,86.00
           C 62.00,86.00 62.00,104.00 62.00,104.00
             65.15,100.15 74.05,88.13 78.04,86.60
             80.18,85.77 85.50,86.00 88.00,86.00
             88.00,86.00 70.00,107.00 70.00,107.00
             70.00,107.00 89.00,129.00 89.00,129.00
             86.44,129.00 81.22,129.23 79.00,128.40
             74.83,126.85 65.21,115.11 63.00,111.00
             63.00,111.00 62.00,129.00 62.00,129.00
             62.00,129.00 53.00,129.00 53.00,129.00
             53.00,129.00 53.00,86.00 53.00,86.00
             53.00,86.00 62.00,86.00 62.00,86.00 Z
           M 327.00,127.00
           C 327.00,127.00 336.00,125.29 336.00,125.29
             342.46,124.48 350.54,127.10 345.85,135.00
             341.43,142.44 329.15,148.76 327.02,152.32
             325.96,154.10 326.07,156.02 326.00,158.00
             326.00,158.00 361.00,158.00 361.00,158.00
             361.00,158.00 361.00,150.00 361.00,150.00
             361.00,150.00 343.00,150.00 343.00,150.00
             346.81,146.96 351.50,143.91 354.36,139.99
             355.81,138.01 357.10,135.40 357.61,133.00
             360.10,121.28 349.90,116.64 340.00,117.04
             337.11,117.16 329.79,118.16 328.02,120.56
             326.84,122.16 327.02,125.09 327.00,127.00 Z
           M 205.00,168.00
           C 205.00,168.00 205.00,172.00 205.00,172.00
             205.00,172.00 235.00,172.00 235.00,172.00
             235.00,172.00 220.00,215.00 220.00,215.00
             220.00,215.00 228.00,216.00 228.00,216.00
             228.00,216.00 228.00,284.00 228.00,284.00
             228.00,288.25 229.04,302.71 226.40,305.41
             225.10,306.74 221.83,307.41 220.00,308.00
             220.00,308.00 235.00,352.00 235.00,352.00
             235.00,352.00 205.00,352.00 205.00,352.00
             205.00,352.00 205.00,357.00 205.00,357.00
             205.00,357.00 283.00,357.00 283.00,357.00
             282.13,352.07 280.80,352.09 276.00,352.00
             276.00,352.00 244.00,352.00 244.00,352.00
             244.00,352.00 253.03,325.00 253.03,325.00
             253.03,325.00 258.00,307.00 258.00,307.00
             258.00,307.00 251.00,307.00 251.00,307.00
             251.00,307.00 251.00,216.00 251.00,216.00
             251.00,216.00 258.00,216.00 258.00,216.00
             258.00,216.00 252.67,197.00 252.67,197.00
             252.67,197.00 244.00,172.00 244.00,172.00
             244.00,172.00 283.00,172.00 283.00,172.00
             283.00,172.00 283.00,168.00 283.00,168.00
             283.00,168.00 205.00,168.00 205.00,168.00 Z
           M 308.02,170.90
           C 293.26,178.61 297.85,198.54 313.00,198.98
             316.23,199.08 320.69,199.16 323.47,197.34
             330.59,192.69 331.02,178.41 324.63,173.04
             320.12,169.26 313.38,169.36 308.02,170.90 Z
           M 291.00,229.00
           C 291.00,229.00 295.00,229.00 295.00,229.00
             295.00,229.00 295.00,344.00 295.00,344.00
             295.00,346.74 294.80,351.25 296.29,353.62
             299.23,358.18 307.48,357.72 310.69,353.62
             313.14,350.57 312.99,346.71 313.00,343.00
             313.00,343.00 313.00,278.00 313.00,278.00
             313.00,278.00 316.00,278.00 316.00,278.00
             316.00,278.00 316.00,328.00 316.00,328.00
             316.00,333.07 315.17,348.15 317.31,351.89
             318.77,354.45 321.79,355.99 324.00,358.00
             324.00,358.00 332.71,353.28 332.71,353.28
             332.71,353.28 334.00,346.00 334.00,346.00
             334.00,346.00 334.00,325.00 334.00,325.00
             334.00,325.00 334.00,229.00 334.00,229.00
             334.00,229.00 339.00,229.00 339.00,229.00
             339.00,229.00 339.00,270.00 339.00,270.00
             339.16,280.35 346.72,278.61 348.96,276.47
             351.83,273.71 351.98,269.67 352.00,266.00
             352.00,266.00 352.00,230.00 352.00,230.00
             351.99,225.53 352.12,224.39 350.82,220.00
             350.07,217.46 349.20,213.73 347.66,211.66
             339.92,201.26 321.43,204.00 310.00,204.12
             310.00,204.12 293.17,204.12 293.17,204.12
             284.17,205.96 278.15,214.22 278.00,223.00
             278.00,223.00 278.00,268.00 278.00,268.00
             278.00,270.07 277.81,273.64 278.82,275.44
             280.83,279.01 287.15,278.59 289.34,275.44
             291.10,272.92 290.99,268.96 291.00,266.00
             291.00,266.00 291.00,229.00 291.00,229.00 Z" />
</svg>
