<?xml version="1.0" encoding="UTF-8" standalone="no"?>
<!DOCTYPE svg PUBLIC "-//W3C//DTD SVG 20010904//EN"
              "http://www.w3.org/TR/2001/REC-SVG-20010904/DTD/svg10.dtd">

<svg xmlns="http://www.w3.org/2000/svg"
     width="1.22in" height="1.22in"
     viewBox="0 0 366 366">
  <path id="Auswahl"
        fill="black" stroke="black" stroke-width="1"
        d="M 194.00,141.00
           C 194.00,141.00 279.00,141.00 279.00,141.00
             288.44,141.02 292.85,142.46 293.00,153.00
             293.00,153.00 293.00,210.00 293.00,210.00
             293.00,212.39 293.13,215.78 292.26,217.98
             288.98,226.31 275.42,224.00 268.00,224.00
             268.00,224.00 194.00,224.00 194.00,224.00
             194.00,224.00 194.00,242.00 194.00,242.00
             193.89,250.04 190.67,254.63 182.00,253.89
             175.82,253.37 164.63,245.26 159.00,241.81
             159.00,241.81 109.00,211.40 109.00,211.40
             109.00,211.40 83.00,195.58 83.00,195.58
             78.25,192.61 73.71,190.11 73.11,184.00
             72.28,175.42 77.59,172.86 84.00,169.00
             84.00,169.00 104.00,156.80 104.00,156.80
             104.00,156.80 158.00,123.80 158.00,123.80
             163.73,120.36 175.98,111.62 182.00,111.11
             194.37,110.05 194.00,119.10 194.00,128.00
             194.00,128.00 194.00,141.00 194.00,141.00 Z" />
</svg>
