<?xml version="1.0" encoding="UTF-8" standalone="no"?>
<!DOCTYPE svg PUBLIC "-//W3C//DTD SVG 20010904//EN"
              "http://www.w3.org/TR/2001/REC-SVG-20010904/DTD/svg10.dtd">

<svg xmlns="http://www.w3.org/2000/svg"
     width="4.06667in" height="4.06667in"
     viewBox="0 0 366 366">
  <path id="Auswahl"
        fill="black" stroke="black" stroke-width="1"
        d="M 257.00,99.74
           C 270.78,106.95 265.33,119.17 262.37,131.00
             262.37,131.00 253.63,168.00 253.63,168.00
             253.63,168.00 245.00,203.00 245.00,203.00
             242.97,212.50 240.39,229.47 232.96,235.72
             225.20,242.25 217.99,236.65 212.00,230.96
             210.17,229.22 206.62,225.04 204.00,225.04
             200.82,225.04 191.60,235.40 189.00,238.00
             189.00,238.00 149.72,277.96 149.72,277.96
             145.10,282.94 137.21,289.00 130.00,286.26
             125.42,284.52 112.26,270.26 108.00,266.00
             108.00,266.00 86.00,244.00 86.00,244.00
             82.87,240.85 78.16,236.59 77.48,232.00
             76.37,224.43 87.10,215.90 92.00,211.00
             92.00,211.00 123.00,180.00 123.00,180.00
             123.00,180.00 138.71,164.00 138.71,164.00
             141.79,159.55 138.01,157.16 135.04,154.00
             130.15,148.82 123.03,141.53 127.74,134.00
             133.36,125.02 148.34,122.88 158.00,120.79
             158.00,120.79 224.00,104.87 224.00,104.87
             232.74,102.75 248.81,97.76 257.00,99.74 Z" />
</svg>
