<?xml version="1.0" encoding="UTF-8" standalone="no"?>
<!DOCTYPE svg PUBLIC "-//W3C//DTD SVG 20010904//EN"
              "http://www.w3.org/TR/2001/REC-SVG-20010904/DTD/svg10.dtd">

<svg xmlns="http://www.w3.org/2000/svg"
     width="1.22in" height="1.22in"
     viewBox="0 0 366 366">
  <path id="Auswahl"
        fill="black" stroke="black" stroke-width="1"
        d="M 169.00,10.00
           C 169.00,10.00 166.00,16.00 166.00,16.00
             166.00,16.00 160.00,16.00 160.00,16.00
             160.00,16.00 160.00,22.00 160.00,22.00
             160.00,22.00 154.00,25.00 154.00,25.00
             154.00,25.00 154.00,49.00 154.00,49.00
             154.00,49.00 160.00,52.00 160.00,52.00
             160.00,52.00 160.00,58.00 160.00,58.00
             160.00,58.00 166.00,58.00 166.00,58.00
             166.00,58.00 169.00,64.00 169.00,64.00
             169.00,64.00 193.00,64.00 193.00,64.00
             193.00,64.00 193.00,61.00 193.00,61.00
             193.00,61.00 199.00,61.00 199.00,61.00
             199.00,61.00 205.00,55.00 205.00,55.00
             205.00,55.00 205.00,49.00 205.00,49.00
             205.00,49.00 208.00,49.00 208.00,49.00
             208.00,49.00 208.00,25.00 208.00,25.00
             208.00,25.00 205.00,25.00 205.00,25.00
             205.00,25.00 205.00,19.00 205.00,19.00
             205.00,19.00 199.00,13.00 199.00,13.00
             199.00,13.00 193.00,13.00 193.00,13.00
             193.00,13.00 193.00,10.00 193.00,10.00
             193.00,10.00 169.00,10.00 169.00,10.00 Z
           M 139.00,73.00
           C 139.00,73.00 139.00,76.00 139.00,76.00
             139.00,76.00 133.00,76.00 133.00,76.00
             133.00,76.00 133.00,79.00 133.00,79.00
             133.00,79.00 127.00,79.00 127.00,79.00
             127.00,79.00 121.00,85.00 121.00,85.00
             121.00,85.00 121.00,91.00 121.00,91.00
             121.00,91.00 115.00,94.00 115.00,94.00
             115.00,94.00 115.00,205.00 115.00,205.00
             115.00,205.00 118.00,208.00 118.00,208.00
             118.00,208.00 133.00,208.00 133.00,208.00
             133.00,208.00 136.00,205.00 136.00,205.00
             136.00,205.00 136.00,199.00 136.00,199.00
             136.00,199.00 139.00,199.00 139.00,199.00
             139.00,199.00 139.00,118.00 139.00,118.00
             139.00,118.00 145.00,118.00 145.00,118.00
             145.00,118.00 145.00,343.00 145.00,343.00
             145.00,343.00 148.00,343.00 148.00,343.00
             148.00,343.00 148.00,349.00 148.00,349.00
             148.00,349.00 151.00,352.00 151.00,352.00
             155.15,352.02 157.50,351.27 160.00,355.00
             160.00,355.00 163.00,355.00 163.00,355.00
             163.00,355.00 163.00,352.00 163.00,352.00
             163.00,352.00 172.00,352.00 172.00,352.00
             172.00,352.00 175.00,349.00 175.00,349.00
             175.00,349.00 175.00,343.00 175.00,343.00
             175.00,343.00 178.00,343.00 178.00,343.00
             178.00,343.00 178.00,208.00 178.00,208.00
             178.00,208.00 184.00,208.00 184.00,208.00
             184.00,208.00 184.00,343.00 184.00,343.00
             184.00,343.00 187.00,343.00 187.00,343.00
             187.00,343.00 187.00,349.00 187.00,349.00
             187.00,349.00 193.00,349.00 193.00,349.00
             193.00,349.00 193.00,352.00 193.00,352.00
             193.00,352.00 199.00,352.00 199.00,352.00
             199.00,352.00 199.00,355.00 199.00,355.00
             199.00,355.00 205.00,355.00 205.00,355.00
             205.00,355.00 205.00,352.00 205.00,352.00
             205.00,352.00 211.00,352.00 211.00,352.00
             211.00,352.00 217.00,346.00 217.00,346.00
             217.00,346.00 217.00,118.00 217.00,118.00
             217.00,118.00 226.00,118.00 226.00,118.00
             226.00,118.00 226.00,205.00 226.00,205.00
             226.00,205.00 229.00,208.00 229.00,208.00
             229.00,208.00 244.00,208.00 244.00,208.00
             244.00,208.00 247.00,205.00 247.00,205.00
             247.00,205.00 247.00,199.00 247.00,199.00
             247.00,199.00 250.00,199.00 250.00,199.00
             250.00,199.00 250.00,106.00 250.00,106.00
             250.00,106.00 247.00,106.00 247.00,106.00
             247.00,106.00 247.00,94.00 247.00,94.00
             247.00,94.00 244.00,94.00 244.00,94.00
             244.00,94.00 244.00,88.00 244.00,88.00
             240.27,86.07 236.93,82.73 235.00,79.00
             235.00,79.00 229.00,79.00 229.00,79.00
             229.00,79.00 229.00,76.00 229.00,76.00
             229.00,76.00 223.00,76.00 223.00,76.00
             223.00,76.00 223.00,73.00 223.00,73.00
             223.00,73.00 139.00,73.00 139.00,73.00 Z" />
</svg>
