<?xml version="1.0" encoding="UTF-8" standalone="no"?>
<!DOCTYPE svg PUBLIC "-//W3C//DTD SVG 20010904//EN"
              "http://www.w3.org/TR/2001/REC-SVG-20010904/DTD/svg10.dtd">

<svg xmlns="http://www.w3.org/2000/svg"
     width="4.06667in" height="4.06667in"
     viewBox="0 0 366 366">
  <path id="Auswahl"
        fill="black" stroke="black" stroke-width="1"
        d="M 30.15,23.02
           C 28.76,24.25 28.40,24.07 27.60,26.06
             26.62,28.50 27.00,41.50 27.00,45.00
             27.00,45.00 27.00,103.00 27.00,103.00
             27.00,103.00 27.00,339.00 27.00,339.00
             27.02,348.68 28.32,349.98 38.00,350.00
             38.00,350.00 97.00,350.00 97.00,350.00
             97.00,350.00 328.00,350.00 328.00,350.00
             337.68,349.98 338.98,348.68 339.00,339.00
             339.00,339.00 339.00,276.00 339.00,276.00
             339.00,276.00 339.00,33.00 339.00,33.00
             338.98,23.32 337.68,22.02 328.00,22.00
             328.00,22.00 269.00,22.00 269.00,22.00
             269.00,22.00 103.00,22.00 103.00,22.00
             103.00,22.00 54.00,22.00 54.00,22.00
             47.87,22.00 35.39,21.16 30.15,23.02 Z
           M 320.00,42.00
           C 320.00,42.00 320.00,331.00 320.00,331.00
             320.00,331.00 46.00,331.00 46.00,331.00
             46.00,331.00 46.00,42.00 46.00,42.00
             46.00,42.00 320.00,42.00 320.00,42.00 Z
           M 79.00,68.00
           C 79.00,68.00 79.00,92.00 79.00,92.00
             79.00,92.00 106.00,92.00 106.00,92.00
             106.00,92.00 106.00,68.00 106.00,68.00
             106.00,68.00 79.00,68.00 79.00,68.00 Z
           M 126.02,68.57
           C 123.76,69.50 122.50,69.83 121.17,72.13
             119.12,75.71 119.35,86.52 122.43,89.49
             125.35,92.30 130.24,91.99 134.00,92.00
             134.00,92.00 235.00,92.00 235.00,92.00
             245.14,91.98 247.98,91.81 248.00,81.00
             248.01,78.40 248.33,73.42 246.98,71.28
             244.95,68.05 240.37,68.04 237.00,68.00
             237.00,68.00 220.00,68.00 220.00,68.00
             220.00,68.00 159.00,68.00 159.00,68.00
             159.00,68.00 126.02,68.57 126.02,68.57 Z
           M 89.31,76.81
           C 91.44,76.09 94.49,75.50 96.40,76.81
             98.19,78.45 98.89,83.11 93.94,83.85
             88.63,84.65 84.44,80.72 89.31,76.81 Z
           M 129.31,76.60
           C 129.31,76.60 164.00,76.00 164.00,76.00
             164.00,76.00 233.00,76.00 233.00,76.00
             234.71,76.00 238.21,75.87 239.69,76.60
             242.24,77.85 242.31,81.45 240.40,82.98
             238.82,84.23 234.98,84.00 233.00,83.95
             233.00,83.95 153.00,83.95 153.00,83.95
             153.00,83.95 131.06,83.95 131.06,83.95
             126.57,83.10 126.09,79.33 129.31,76.60 Z
           M 129.00,108.11
           C 122.24,109.63 120.23,110.63 120.02,118.00
             119.91,121.42 119.77,126.93 122.51,129.40
             124.49,131.19 127.51,130.98 130.00,131.00
             130.00,131.00 156.00,131.00 156.00,131.00
             156.00,131.00 276.00,131.00 276.00,131.00
             283.99,130.98 285.88,130.67 286.00,122.00
             286.04,118.87 286.54,112.88 284.40,110.51
             282.18,108.05 278.05,108.04 275.00,108.11
             275.00,108.11 250.00,108.11 250.00,108.11
             250.00,108.11 171.00,108.11 171.00,108.11
             171.00,108.11 129.00,108.11 129.00,108.11 Z
           M 79.00,109.00
           C 79.00,109.00 79.00,132.00 79.00,132.00
             79.00,132.00 106.00,132.00 106.00,132.00
             106.00,132.00 106.00,109.00 106.00,109.00
             106.00,109.00 79.00,109.00 79.00,109.00 Z
           M 128.31,115.60
           C 132.90,114.49 140.08,115.00 145.00,115.00
             145.00,115.00 175.00,115.00 175.00,115.00
             175.00,115.00 270.00,115.00 270.00,115.00
             271.71,115.00 275.21,114.87 276.69,115.60
             279.40,116.93 279.71,122.15 277.40,123.98
             275.81,125.23 271.99,125.00 270.00,125.00
             270.00,125.00 161.00,125.00 161.00,125.00
             161.00,125.00 133.00,125.00 133.00,125.00
             124.22,124.83 124.67,118.67 128.31,115.60 Z
           M 89.31,116.81
           C 91.45,116.11 93.69,115.69 95.69,116.81
             98.47,118.89 98.18,122.97 94.85,124.40
             88.94,126.94 84.08,121.02 89.31,116.81 Z
           M 132.00,146.21
           C 123.94,147.59 120.29,146.96 120.02,157.00
             119.92,160.42 119.73,165.81 122.51,168.26
             124.70,170.19 128.26,169.99 131.00,170.00
             131.00,170.00 156.00,170.00 156.00,170.00
             156.00,170.00 275.00,170.00 275.00,170.00
             283.18,169.99 285.87,170.13 286.00,161.00
             286.04,157.81 286.57,151.04 284.26,148.74
             282.46,146.94 279.36,147.04 277.00,147.00
             277.00,147.00 251.00,147.00 251.00,147.00
             251.00,147.00 164.00,147.00 164.00,147.00
             164.00,147.00 151.00,146.21 151.00,146.21
             151.00,146.21 132.00,146.21 132.00,146.21 Z
           M 79.00,147.00
           C 79.00,147.00 79.00,171.00 79.00,171.00
             79.00,171.00 106.00,171.00 106.00,171.00
             106.00,171.00 106.00,147.00 106.00,147.00
             106.00,147.00 79.00,147.00 79.00,147.00 Z
           M 128.31,154.60
           C 132.90,153.49 140.08,154.00 145.00,154.00
             145.00,154.00 175.00,154.00 175.00,154.00
             175.00,154.00 270.00,154.00 270.00,154.00
             273.04,154.01 277.71,153.33 278.67,157.14
             280.11,162.89 274.95,162.97 271.00,163.00
             271.00,163.00 252.00,163.00 252.00,163.00
             252.00,163.00 161.00,163.00 161.00,163.00
             161.00,163.00 133.00,163.00 133.00,163.00
             125.21,162.85 124.23,158.04 128.31,154.60 Z
           M 89.31,155.81
           C 91.44,155.09 94.49,154.50 96.40,155.81
             98.19,157.45 98.89,162.11 93.94,162.85
             88.63,163.65 84.44,159.72 89.31,155.81 Z
           M 79.00,187.00
           C 79.00,187.00 79.00,210.00 79.00,210.00
             79.00,210.00 106.00,210.00 106.00,210.00
             106.00,210.00 106.00,187.00 106.00,187.00
             106.00,187.00 79.00,187.00 79.00,187.00 Z
           M 125.10,187.56
           C 119.51,190.11 119.88,194.49 120.01,200.00
             120.34,213.31 129.15,210.00 148.00,210.00
             148.00,210.00 237.00,210.00 237.00,210.00
             246.20,209.99 247.95,209.70 248.00,200.00
             248.01,197.46 248.39,191.48 246.98,189.51
             245.03,186.78 239.99,187.02 237.00,187.00
             237.00,187.00 220.00,187.00 220.00,187.00
             220.00,187.00 158.00,187.00 158.00,187.00
             158.00,187.00 125.10,187.56 125.10,187.56 Z
           M 89.31,194.60
           C 91.70,194.06 94.45,193.63 96.40,195.60
             98.25,197.46 98.84,202.11 93.94,202.85
             88.01,203.74 84.41,198.74 89.31,194.60 Z
           M 129.31,194.60
           C 129.31,194.60 163.00,194.00 163.00,194.00
             163.00,194.00 232.00,194.00 232.00,194.00
             234.18,194.00 237.84,193.79 239.69,195.02
             242.18,196.69 242.63,200.95 239.69,202.77
             238.21,203.13 234.71,203.00 233.00,202.77
             233.00,202.77 153.00,202.77 153.00,202.77
             153.00,202.77 130.15,202.77 130.15,202.77
             126.02,201.47 126.49,196.98 129.31,194.60 Z
           M 79.00,232.00
           C 79.00,232.00 79.00,255.00 79.00,255.00
             79.00,255.00 106.00,255.00 106.00,255.00
             106.00,255.00 106.00,232.00 106.00,232.00
             106.00,232.00 79.00,232.00 79.00,232.00 Z
           M 129.00,232.11
           C 122.24,233.63 120.23,234.63 120.02,242.00
             119.91,245.42 119.77,250.93 122.51,253.40
             124.49,255.19 127.51,254.98 130.00,255.00
             130.00,255.00 156.00,255.00 156.00,255.00
             156.00,255.00 276.00,255.00 276.00,255.00
             283.99,254.98 285.88,254.67 286.00,246.00
             286.04,242.92 286.54,236.85 284.40,234.56
             282.14,232.14 277.10,232.04 274.00,232.11
             274.00,232.11 250.00,232.11 250.00,232.11
             250.00,232.11 171.00,232.11 171.00,232.11
             171.00,232.11 129.00,232.11 129.00,232.11 Z
           M 89.31,239.81
           C 91.45,239.11 93.69,238.69 95.69,239.81
             98.47,241.89 98.18,245.97 94.85,247.40
             88.94,249.94 84.08,244.02 89.31,239.81 Z
           M 128.31,239.60
           C 132.90,238.49 140.08,239.00 145.00,239.00
             145.00,239.00 175.00,239.00 175.00,239.00
             175.00,239.00 270.00,239.00 270.00,239.00
             271.71,239.00 275.21,238.87 276.69,239.60
             279.40,240.93 279.71,246.15 277.40,247.98
             275.81,249.23 271.99,249.00 270.00,249.00
             270.00,249.00 161.00,249.00 161.00,249.00
             161.00,249.00 133.00,249.00 133.00,249.00
             124.22,248.83 124.67,242.67 128.31,239.60 Z
           M 79.00,275.00
           C 79.00,275.00 79.00,292.00 79.00,292.00
             79.16,300.51 81.71,299.11 98.00,299.00
             99.82,298.99 102.92,299.15 104.40,297.98
             106.10,296.63 105.96,293.95 106.00,292.00
             106.00,292.00 106.00,275.00 106.00,275.00
             106.00,275.00 79.00,275.00 79.00,275.00 Z
           M 125.10,275.56
           C 119.51,278.11 119.88,282.49 120.01,288.00
             120.34,301.31 129.15,298.00 148.00,298.00
             148.00,298.00 237.00,298.00 237.00,298.00
             246.20,297.99 247.95,297.70 248.00,288.00
             248.01,285.52 248.41,279.57 247.01,277.65
             244.97,274.86 240.08,275.02 237.00,275.00
             237.00,275.00 220.00,275.00 220.00,275.00
             220.00,275.00 158.00,275.00 158.00,275.00
             158.00,275.00 125.10,275.56 125.10,275.56 Z
           M 89.31,282.60
           C 91.70,282.06 94.45,281.63 96.40,283.60
             98.25,285.46 98.84,290.11 93.94,290.85
             88.01,291.74 84.41,286.74 89.31,282.60 Z
           M 129.31,282.60
           C 129.31,282.60 163.00,282.00 163.00,282.00
             163.00,282.00 232.00,282.00 232.00,282.00
             234.18,282.00 237.84,281.79 239.69,283.02
             242.18,284.69 242.63,288.95 239.69,290.77
             238.21,291.13 234.71,291.00 233.00,290.77
             233.00,290.77 153.00,290.77 153.00,290.77
             153.00,290.77 130.15,290.77 130.15,290.77
             126.02,289.47 126.49,284.98 129.31,282.60 Z" />
</svg>
