<?xml version="1.0" encoding="UTF-8" standalone="no"?>
<!DOCTYPE svg PUBLIC "-//W3C//DTD SVG 20010904//EN"
              "http://www.w3.org/TR/2001/REC-SVG-20010904/DTD/svg10.dtd">

<svg xmlns="http://www.w3.org/2000/svg"
     width="1.22in" height="1.22in"
     viewBox="0 0 366 366">
  <path id="Auswahl"
        fill="black" stroke="black" stroke-width="1"
        d="M 194.00,135.80
           C 198.72,129.41 205.81,124.62 209.05,117.00
             213.69,106.05 207.27,95.05 195.00,96.11
             190.32,96.51 180.86,102.08 182.70,107.76
             183.32,109.64 184.99,110.10 186.65,109.19
             188.17,108.35 189.53,105.76 192.10,104.31
             196.84,101.65 204.17,103.56 203.62,110.00
             203.06,116.65 190.72,127.14 186.02,132.00
             179.73,138.50 178.71,141.93 189.00,142.00
             189.00,142.00 202.00,142.00 202.00,142.00
             204.08,142.00 207.93,142.21 209.64,140.98
             211.94,139.33 211.13,136.68 208.77,135.80
             205.77,134.23 197.66,135.83 194.00,135.80 Z
           M 162.00,108.00
           C 162.00,108.00 162.00,135.00 162.00,135.00
             160.17,135.06 157.91,134.95 156.32,136.02
             153.79,137.73 153.69,140.88 158.06,141.94
             160.92,142.64 169.14,143.49 171.85,142.69
             175.05,141.74 175.13,138.84 172.68,136.93
             171.53,136.03 169.40,135.46 168.00,135.00
             169.76,128.79 169.01,115.98 169.00,109.00
             168.99,104.82 169.54,97.24 162.98,98.70
             160.34,99.29 152.18,103.91 154.17,107.40
             155.42,109.60 160.05,108.34 162.00,108.00 Z
           M 97.31,155.02
           C 93.77,158.82 95.00,165.09 95.00,170.00
             95.00,170.00 95.00,207.00 95.00,207.00
             95.00,207.00 95.00,260.00 95.00,260.00
             95.01,262.53 94.66,266.36 96.60,268.26
             98.58,270.20 102.42,269.99 105.00,270.00
             105.00,270.00 133.00,270.00 133.00,270.00
             133.00,270.00 259.00,270.00 259.00,270.00
             261.77,270.00 266.29,270.32 268.40,268.26
             270.05,266.65 269.96,264.13 270.00,262.00
             270.00,262.00 270.00,244.00 270.00,244.00
             270.00,244.00 270.00,164.00 270.00,164.00
             269.99,161.46 270.32,157.52 268.40,155.60
             266.48,153.68 262.54,154.01 260.00,154.00
             260.00,154.00 231.00,154.00 231.00,154.00
             231.00,154.00 139.00,154.00 139.00,154.00
             139.00,154.00 112.00,154.00 112.00,154.00
             107.18,154.00 101.85,153.30 97.31,155.02 Z
           M 119.00,161.00
           C 119.00,161.00 119.00,176.00 119.00,176.00
             119.00,176.00 101.00,176.00 101.00,176.00
             101.00,173.23 100.50,164.52 102.02,162.60
             104.00,160.10 115.61,161.00 119.00,161.00 Z
           M 143.00,161.00
           C 143.00,161.00 143.00,176.00 143.00,176.00
             143.00,176.00 125.00,176.00 125.00,176.00
             125.00,173.23 124.50,164.52 126.02,162.60
             128.00,160.10 139.61,161.00 143.00,161.00 Z
           M 167.00,161.00
           C 167.00,161.00 167.00,176.00 167.00,176.00
             167.00,176.00 150.00,176.00 150.00,176.00
             150.00,176.00 150.00,161.00 150.00,161.00
             150.00,161.00 167.00,161.00 167.00,161.00 Z
           M 174.00,176.00
           C 174.00,176.00 174.00,168.00 174.00,168.00
             174.03,166.38 173.96,163.94 175.02,162.60
             176.76,160.41 188.15,160.28 190.26,161.99
             192.66,163.93 192.66,173.07 190.26,175.01
             188.82,176.17 185.78,175.99 184.00,176.00
             184.00,176.00 174.00,176.00 174.00,176.00 Z
           M 216.00,176.00
           C 216.00,176.00 198.00,176.00 198.00,176.00
             198.00,176.00 198.00,161.00 198.00,161.00
             201.39,161.00 213.00,160.10 214.98,162.60
             216.50,164.52 216.00,173.23 216.00,176.00 Z
           M 240.00,161.00
           C 240.00,161.00 240.00,176.00 240.00,176.00
             240.00,176.00 222.00,176.00 222.00,176.00
             222.00,176.00 222.00,161.00 222.00,161.00
             222.00,161.00 240.00,161.00 240.00,161.00 Z
           M 264.00,161.00
           C 264.00,161.00 264.00,176.00 264.00,176.00
             264.00,176.00 246.00,176.00 246.00,176.00
             246.00,176.00 246.00,161.00 246.00,161.00
             246.00,161.00 264.00,161.00 264.00,161.00 Z
           M 119.00,198.00
           C 119.00,198.00 108.00,198.00 108.00,198.00
             106.38,197.97 103.94,198.04 102.60,196.98
             100.47,195.29 100.42,186.62 102.02,184.60
             103.87,182.26 116.13,182.26 117.98,184.60
             119.15,186.08 118.99,189.18 119.00,191.00
             119.00,191.00 119.00,198.00 119.00,198.00 Z
           M 143.00,183.00
           C 143.00,183.00 143.00,198.00 143.00,198.00
             140.22,198.00 129.29,198.36 127.43,197.43
             124.30,195.86 124.00,186.08 126.60,184.02
             128.62,182.42 139.90,183.00 143.00,183.00 Z
           M 167.00,183.00
           C 167.00,183.00 167.00,198.00 167.00,198.00
             167.00,198.00 150.00,198.00 150.00,198.00
             150.00,198.00 150.00,183.00 150.00,183.00
             150.00,183.00 167.00,183.00 167.00,183.00 Z
           M 190.91,198.00
           C 190.91,198.00 174.00,198.00 174.00,198.00
             174.00,195.23 173.50,186.52 175.02,184.59
             176.88,182.25 188.96,182.21 190.91,184.59
             193.01,187.35 191.59,194.73 190.91,198.00 Z
           M 198.00,198.00
           C 198.00,198.00 198.00,190.00 198.00,190.00
             198.03,188.38 197.96,185.94 199.02,184.60
             200.79,182.37 212.24,182.31 214.40,184.02
             216.68,185.82 216.68,195.18 214.40,196.98
             212.92,198.15 209.82,197.99 208.00,198.00
             208.00,198.00 198.00,198.00 198.00,198.00 Z
           M 240.00,183.00
           C 240.00,183.00 240.00,191.00 240.00,191.00
             239.97,192.62 240.04,195.06 238.98,196.40
             237.21,198.63 225.76,198.69 223.60,196.98
             221.32,195.18 221.32,185.82 223.60,184.02
             225.08,182.85 228.18,183.01 230.00,183.00
             230.00,183.00 240.00,183.00 240.00,183.00 Z
           M 264.00,198.00
           C 264.00,198.00 246.00,198.00 246.00,198.00
             246.00,198.00 246.00,183.00 246.00,183.00
             249.39,183.00 261.00,182.10 262.98,184.60
             264.50,186.52 264.00,195.23 264.00,198.00 Z
           M 118.00,205.00
           C 118.88,208.11 120.23,217.74 117.40,219.98
             115.93,221.15 112.82,220.99 111.00,221.00
             108.87,221.01 104.26,221.29 102.59,219.98
             100.39,218.23 100.21,207.87 102.59,206.09
             104.14,205.20 107.17,205.83 109.00,206.09
             112.69,206.07 114.45,205.64 118.00,205.00 Z
           M 143.00,205.00
           C 143.00,205.00 143.00,221.00 143.00,221.00
             139.90,221.00 128.62,221.58 126.60,219.98
             123.77,217.74 125.12,208.11 126.00,205.00
             133.53,206.35 135.47,206.35 143.00,205.00 Z
           M 167.00,205.00
           C 167.00,205.00 167.00,221.00 167.00,221.00
             167.00,221.00 150.00,221.00 150.00,221.00
             150.00,221.00 150.00,205.00 150.00,205.00
             157.53,206.35 159.47,206.35 167.00,205.00 Z
           M 190.91,205.00
           C 191.79,208.27 193.01,216.65 190.91,219.41
             188.96,221.79 176.88,221.75 175.01,219.41
             172.97,216.81 174.14,208.04 175.01,205.00
             182.34,206.32 183.66,206.32 190.91,205.00 Z
           M 199.01,205.00
           C 204.15,205.92 204.74,206.04 210.00,206.11
             211.34,205.83 213.23,205.58 214.43,206.11
             216.70,207.79 216.53,217.44 214.98,219.40
             213.13,221.74 200.87,221.74 199.01,219.40
             196.97,216.81 198.14,208.04 199.01,205.00 Z
           M 239.00,205.00
           C 239.00,205.00 240.00,221.00 240.00,221.00
             236.90,221.00 225.62,221.58 223.60,219.98
             220.77,217.74 222.12,208.11 223.00,205.00
             229.35,206.14 232.61,206.55 239.00,205.00 Z
           M 263.00,205.00
           C 263.88,208.11 265.23,217.74 262.40,219.98
             260.38,221.58 249.10,221.00 246.00,221.00
             246.00,221.00 246.00,205.00 246.00,205.00
             254.30,206.09 254.51,206.52 263.00,205.00 Z
           M 119.00,226.00
           C 119.00,226.00 119.00,241.00 119.00,241.00
             119.00,241.00 101.00,241.00 101.00,241.00
             101.00,241.00 101.00,226.00 101.00,226.00
             101.00,226.00 119.00,226.00 119.00,226.00 Z
           M 143.00,226.00
           C 143.00,226.00 143.00,241.00 143.00,241.00
             143.00,241.00 125.00,241.00 125.00,241.00
             125.00,238.23 124.50,229.52 126.02,227.60
             128.00,225.10 139.61,226.00 143.00,226.00 Z
           M 167.00,226.00
           C 167.00,226.00 167.00,241.00 167.00,241.00
             167.00,241.00 150.00,241.00 150.00,241.00
             150.00,241.00 150.00,226.00 150.00,226.00
             150.00,226.00 167.00,226.00 167.00,226.00 Z
           M 174.00,241.00
           C 174.00,241.00 174.00,226.00 174.00,226.00
             176.78,226.00 187.71,225.64 189.57,226.57
             192.80,228.20 192.90,237.88 190.26,240.01
             188.26,241.63 177.07,241.00 174.00,241.00 Z
           M 216.00,241.00
           C 216.00,241.00 198.00,241.00 198.00,241.00
             198.00,241.00 198.00,226.00 198.00,226.00
             201.39,226.00 213.00,225.10 214.98,227.60
             216.50,229.52 216.00,238.23 216.00,241.00 Z
           M 240.00,226.00
           C 240.00,226.00 240.00,241.00 240.00,241.00
             240.00,241.00 222.00,241.00 222.00,241.00
             222.00,241.00 222.00,226.00 222.00,226.00
             222.00,226.00 240.00,226.00 240.00,226.00 Z
           M 264.00,226.00
           C 264.00,226.00 264.00,241.00 264.00,241.00
             264.00,241.00 246.00,241.00 246.00,241.00
             246.00,241.00 246.00,226.00 246.00,226.00
             246.00,226.00 264.00,226.00 264.00,226.00 Z
           M 119.00,249.00
           C 119.00,249.00 119.00,263.00 119.00,263.00
             119.00,263.00 101.00,263.00 101.00,263.00
             101.00,263.00 101.00,249.00 101.00,249.00
             101.00,249.00 119.00,249.00 119.00,249.00 Z
           M 143.00,249.00
           C 143.00,249.00 143.00,263.00 143.00,263.00
             143.00,263.00 125.00,263.00 125.00,263.00
             125.00,260.34 124.52,252.49 126.02,250.60
             128.00,248.10 139.61,249.00 143.00,249.00 Z
           M 167.00,249.00
           C 167.00,249.00 167.00,263.00 167.00,263.00
             167.00,263.00 150.00,263.00 150.00,263.00
             150.00,263.00 150.00,249.00 150.00,249.00
             150.00,249.00 167.00,249.00 167.00,249.00 Z
           M 190.91,249.00
           C 191.56,252.13 192.94,258.74 190.91,261.43
             188.87,263.91 177.36,263.00 174.00,263.00
             174.00,263.00 174.00,249.00 174.00,249.00
             174.00,249.00 190.91,249.00 190.91,249.00 Z
           M 216.00,263.00
           C 216.00,263.00 198.00,263.00 198.00,263.00
             198.00,263.00 198.00,249.00 198.00,249.00
             201.39,249.00 213.00,248.10 214.98,250.60
             216.48,252.49 216.00,260.34 216.00,263.00 Z
           M 240.00,249.00
           C 240.00,249.00 240.00,263.00 240.00,263.00
             240.00,263.00 222.00,263.00 222.00,263.00
             222.00,263.00 222.00,249.00 222.00,249.00
             222.00,249.00 240.00,249.00 240.00,249.00 Z
           M 264.00,249.00
           C 264.00,249.00 264.00,263.00 264.00,263.00
             264.00,263.00 246.00,263.00 246.00,263.00
             246.00,263.00 246.00,249.00 246.00,249.00
             246.00,249.00 264.00,249.00 264.00,249.00 Z" />
</svg>
