<?xml version="1.0" encoding="UTF-8" standalone="no"?>
<!DOCTYPE svg PUBLIC "-//W3C//DTD SVG 20010904//EN"
              "http://www.w3.org/TR/2001/REC-SVG-20010904/DTD/svg10.dtd">

<svg xmlns="http://www.w3.org/2000/svg"
     width="1.21in" height="1.19333in"
     viewBox="0 0 363 358">
  <path id="Auswahl #1"
        fill="black" stroke="black" stroke-width="1"
        d="M 66.00,93.00
           C 60.24,93.00 53.47,92.52 48.00,94.22
             31.80,99.26 20.68,112.87 16.77,129.00
             15.94,132.42 15.18,134.38 15.04,138.00
             14.92,141.47 16.24,151.60 17.16,155.00
             17.90,157.75 20.31,162.48 19.59,165.00
             19.59,165.00 10.45,178.00 10.45,178.00
             5.18,186.72 2.47,195.79 2.04,206.00
             1.63,215.69 4.09,226.06 9.79,234.00
             13.34,238.95 16.96,241.02 18.57,244.17
             18.57,244.17 21.64,258.00 21.64,258.00
             22.65,261.69 29.95,276.81 31.97,279.62
             33.49,281.75 39.50,285.32 42.00,287.15
             42.00,287.15 49.00,292.20 49.00,292.20
             62.69,300.08 80.22,300.27 95.00,296.00
             95.57,318.94 119.22,341.96 142.00,342.00
             149.69,342.01 157.63,342.05 165.00,339.45
             170.48,337.52 179.55,332.40 184.00,328.68
             185.99,327.01 191.61,320.67 193.17,320.19
             195.93,319.35 202.25,324.96 205.00,326.49
             211.42,330.04 218.74,331.15 226.00,330.99
             246.53,330.52 269.99,310.57 275.00,291.00
             302.73,295.97 326.45,275.33 336.77,251.00
             341.39,240.09 342.75,231.64 343.50,220.00
             343.78,215.36 342.19,210.59 343.50,206.00
             343.50,206.00 350.64,192.00 350.64,192.00
             353.78,185.39 355.91,177.32 356.00,170.00
             356.11,160.34 355.87,151.10 352.05,142.00
             352.05,142.00 342.59,126.00 342.59,126.00
             341.78,123.70 342.03,119.55 342.00,117.00
             341.75,96.04 330.03,74.43 307.00,73.21
             299.38,72.80 292.18,76.11 285.00,78.00
             281.37,65.58 270.27,55.16 257.00,55.00
             250.00,54.92 244.62,54.97 238.00,57.79
             233.96,59.50 230.37,62.24 227.00,65.00
             219.29,49.30 200.96,41.36 184.00,45.93
             174.85,48.39 165.79,54.79 165.17,55.01
             161.91,56.15 159.15,52.09 157.00,50.17
             151.87,45.62 144.78,41.40 138.00,40.09
             112.70,35.21 92.31,48.09 77.73,68.00
             72.52,75.12 67.58,84.26 66.00,93.00 Z
           M 47.02,109.43
           C 50.58,108.92 53.76,108.74 56.61,111.43
             62.00,116.52 60.60,127.47 52.98,129.57
             40.10,133.12 34.69,114.54 47.02,109.43 Z
           M 98.02,109.43
           C 101.58,108.92 104.76,108.74 107.61,111.43
             113.00,116.52 111.60,127.47 103.98,129.57
             91.10,133.12 85.69,114.54 98.02,109.43 Z
           M 149.02,109.43
           C 152.58,108.92 155.76,108.74 158.61,111.43
             164.00,116.52 162.60,127.47 154.98,129.57
             142.10,133.12 136.69,114.54 149.02,109.43 Z
           M 200.02,109.43
           C 203.58,108.92 206.76,108.74 209.61,111.43
             215.00,116.52 213.60,127.47 205.98,129.57
             193.10,133.12 187.69,114.54 200.02,109.43 Z
           M 251.02,109.43
           C 254.58,108.92 257.76,108.74 260.61,111.43
             266.00,116.52 264.60,127.47 256.98,129.57
             244.10,133.12 238.69,114.54 251.02,109.43 Z
           M 302.02,109.43
           C 305.58,108.92 308.76,108.74 311.61,111.43
             317.00,116.52 315.60,127.47 307.98,129.57
             295.10,133.12 289.69,114.54 302.02,109.43 Z
           M 74.02,160.43
           C 77.58,159.92 80.76,159.74 83.61,162.43
             89.00,167.52 87.60,178.47 79.98,180.57
             67.10,184.12 61.69,165.54 74.02,160.43 Z
           M 125.02,160.43
           C 128.58,159.92 131.76,159.74 134.61,162.43
             140.00,167.52 138.60,178.47 130.98,180.57
             118.10,184.12 112.69,165.54 125.02,160.43 Z
           M 176.02,160.43
           C 179.58,159.92 182.76,159.74 185.61,162.43
             191.00,167.52 189.60,178.47 181.98,180.57
             169.10,184.12 163.69,165.54 176.02,160.43 Z
           M 227.02,160.43
           C 230.58,159.92 233.76,159.74 236.61,162.43
             242.00,167.52 240.60,178.47 232.98,180.57
             220.10,184.12 214.69,165.54 227.02,160.43 Z
           M 278.02,160.43
           C 281.58,159.92 284.76,159.74 287.61,162.43
             293.00,167.52 291.60,178.47 283.98,180.57
             271.10,184.12 265.69,165.54 278.02,160.43 Z
           M 47.02,211.43
           C 50.58,210.92 53.76,210.74 56.61,213.43
             62.00,218.52 60.60,229.47 52.98,231.57
             40.10,235.12 34.69,216.54 47.02,211.43 Z
           M 98.02,211.43
           C 101.58,210.92 104.76,210.74 107.61,213.43
             113.00,218.52 111.60,229.47 103.98,231.57
             91.10,235.12 85.69,216.54 98.02,211.43 Z
           M 149.02,211.43
           C 152.58,210.92 155.76,210.74 158.61,213.43
             164.00,218.52 162.60,229.47 154.98,231.57
             142.10,235.12 136.69,216.54 149.02,211.43 Z
           M 200.02,211.43
           C 203.58,210.92 206.76,210.74 209.61,213.43
             215.00,218.52 213.60,229.47 205.98,231.57
             193.10,235.12 187.69,216.54 200.02,211.43 Z
           M 251.02,211.43
           C 254.58,210.92 257.76,210.74 260.61,213.43
             266.00,218.52 264.60,229.47 256.98,231.57
             244.10,235.12 238.69,216.54 251.02,211.43 Z
           M 302.02,211.43
           C 305.58,210.92 308.76,210.74 311.61,213.43
             317.00,218.52 315.60,229.47 307.98,231.57
             295.10,235.12 289.69,216.54 302.02,211.43 Z
           M 74.02,258.43
           C 77.58,257.92 80.76,257.74 83.61,260.43
             89.00,265.52 87.60,276.47 79.98,278.57
             67.10,282.12 61.69,263.54 74.02,258.43 Z
           M 125.02,258.43
           C 128.58,257.92 131.76,257.74 134.61,260.43
             140.00,265.52 138.60,276.47 130.98,278.57
             118.10,282.12 112.69,263.54 125.02,258.43 Z
           M 176.02,258.43
           C 179.58,257.92 182.76,257.74 185.61,260.43
             191.00,265.52 189.60,276.47 181.98,278.57
             169.10,282.12 163.69,263.54 176.02,258.43 Z
           M 227.02,258.43
           C 230.58,257.92 233.76,257.74 236.61,260.43
             242.00,265.52 240.60,276.47 232.98,278.57
             220.10,282.12 214.69,263.54 227.02,258.43 Z
           M 278.02,258.43
           C 281.58,257.92 284.76,257.74 287.61,260.43
             293.00,265.52 291.60,276.47 283.98,278.57
             271.10,282.12 265.69,263.54 278.02,258.43 Z" />
</svg>
