<?xml version="1.0" encoding="UTF-8" standalone="no"?>
<!DOCTYPE svg PUBLIC "-//W3C//DTD SVG 20010904//EN"
              "http://www.w3.org/TR/2001/REC-SVG-20010904/DTD/svg10.dtd">

<svg xmlns="http://www.w3.org/2000/svg"
     width="1.22in" height="1.22in"
     viewBox="0 0 366 366">
  <path id="Auswahl"
        fill="black" stroke="black" stroke-width="1"
        d="M 95.00,18.00
           C 95.00,18.00 79.95,63.00 79.95,63.00
             76.96,71.16 69.70,90.21 69.00,98.00
             69.00,98.00 82.00,98.00 82.00,98.00
             82.00,98.00 82.00,265.00 82.00,265.00
             78.58,265.00 71.00,263.98 69.78,268.15
             69.22,270.08 70.39,273.13 71.00,275.00
             71.00,275.00 75.72,290.00 75.72,290.00
             75.72,290.00 95.00,349.00 95.00,349.00
             95.00,349.00 49.00,349.00 49.00,349.00
             47.02,349.00 43.18,348.77 41.60,350.02
             39.69,351.55 39.76,355.15 42.31,356.40
             43.79,357.13 47.29,357.00 49.00,357.00
             49.00,357.00 174.00,357.00 174.00,357.00
             175.98,357.00 179.82,357.23 181.40,355.98
             182.33,355.24 182.71,354.16 182.71,353.00
             182.71,348.63 178.08,349.02 175.00,349.00
             175.00,349.00 141.00,349.00 141.00,349.00
             141.00,349.00 112.00,349.00 112.00,349.00
             112.00,349.00 132.66,286.00 132.66,286.00
             133.81,282.39 138.86,269.38 136.36,266.74
             134.69,264.96 131.26,265.03 129.00,265.00
             129.00,265.00 124.00,265.00 124.00,265.00
             124.00,265.00 124.00,98.00 124.00,98.00
             124.00,98.00 138.00,98.00 138.00,98.00
             138.00,98.00 129.67,70.00 129.67,70.00
             129.67,70.00 112.00,18.00 112.00,18.00
             112.00,18.00 141.00,18.00 141.00,18.00
             141.00,18.00 174.00,18.00 174.00,18.00
             175.71,18.00 179.21,18.13 180.69,17.40
             183.24,16.15 183.31,12.55 181.40,11.02
             179.82,9.77 175.98,10.00 174.00,10.00
             174.00,10.00 49.00,10.00 49.00,10.00
             47.29,10.00 43.79,9.87 42.31,10.60
             39.76,11.85 39.69,15.45 41.60,16.98
             43.18,18.23 47.02,18.00 49.00,18.00
             49.00,18.00 95.00,18.00 95.00,18.00 Z
           M 228.00,14.00
           C 228.00,14.00 225.00,20.00 225.00,20.00
             225.00,20.00 219.00,20.00 219.00,20.00
             219.00,20.00 219.00,26.00 219.00,26.00
             219.00,26.00 213.00,29.00 213.00,29.00
             213.00,29.00 213.00,53.00 213.00,53.00
             213.00,53.00 219.00,56.00 219.00,56.00
             219.00,56.00 219.00,62.00 219.00,62.00
             219.00,62.00 225.00,62.00 225.00,62.00
             225.00,62.00 228.00,68.00 228.00,68.00
             228.00,68.00 252.00,68.00 252.00,68.00
             252.00,68.00 252.00,65.00 252.00,65.00
             252.00,65.00 258.00,65.00 258.00,65.00
             258.00,65.00 264.00,59.00 264.00,59.00
             264.00,59.00 264.00,53.00 264.00,53.00
             264.00,53.00 267.00,53.00 267.00,53.00
             267.00,53.00 267.00,29.00 267.00,29.00
             267.00,29.00 264.00,29.00 264.00,29.00
             264.00,29.00 264.00,23.00 264.00,23.00
             264.00,23.00 258.00,17.00 258.00,17.00
             258.00,17.00 252.00,17.00 252.00,17.00
             252.00,17.00 252.00,14.00 252.00,14.00
             252.00,14.00 228.00,14.00 228.00,14.00 Z
           M 198.00,77.00
           C 198.00,77.00 198.00,80.00 198.00,80.00
             198.00,80.00 192.00,80.00 192.00,80.00
             192.00,80.00 192.00,83.00 192.00,83.00
             192.00,83.00 186.00,83.00 186.00,83.00
             186.00,83.00 180.00,89.00 180.00,89.00
             180.00,89.00 180.00,95.00 180.00,95.00
             180.00,95.00 174.00,98.00 174.00,98.00
             174.00,98.00 174.00,209.00 174.00,209.00
             174.00,209.00 177.00,212.00 177.00,212.00
             177.00,212.00 192.00,212.00 192.00,212.00
             192.00,212.00 195.00,209.00 195.00,209.00
             195.00,209.00 195.00,203.00 195.00,203.00
             195.00,203.00 198.00,203.00 198.00,203.00
             198.00,203.00 198.00,122.00 198.00,122.00
             198.00,122.00 204.00,122.00 204.00,122.00
             204.00,122.00 204.00,347.00 204.00,347.00
             204.00,347.00 207.00,347.00 207.00,347.00
             207.00,347.00 207.00,353.00 207.00,353.00
             207.00,353.00 210.00,356.00 210.00,356.00
             214.15,356.02 216.50,355.27 219.00,359.00
             219.00,359.00 222.00,359.00 222.00,359.00
             222.00,359.00 222.00,356.00 222.00,356.00
             222.00,356.00 231.00,356.00 231.00,356.00
             231.00,356.00 234.00,353.00 234.00,353.00
             234.00,353.00 234.00,347.00 234.00,347.00
             234.00,347.00 237.00,347.00 237.00,347.00
             237.00,347.00 237.00,212.00 237.00,212.00
             237.00,212.00 243.00,212.00 243.00,212.00
             243.00,212.00 243.00,347.00 243.00,347.00
             243.00,347.00 246.00,347.00 246.00,347.00
             246.00,347.00 246.00,353.00 246.00,353.00
             246.00,353.00 252.00,353.00 252.00,353.00
             252.00,353.00 252.00,356.00 252.00,356.00
             252.00,356.00 258.00,356.00 258.00,356.00
             258.00,356.00 258.00,359.00 258.00,359.00
             258.00,359.00 264.00,359.00 264.00,359.00
             264.00,359.00 264.00,356.00 264.00,356.00
             264.00,356.00 270.00,356.00 270.00,356.00
             270.00,356.00 276.00,350.00 276.00,350.00
             276.00,350.00 276.00,122.00 276.00,122.00
             276.00,122.00 285.00,122.00 285.00,122.00
             285.00,122.00 285.00,209.00 285.00,209.00
             285.00,209.00 288.00,212.00 288.00,212.00
             288.00,212.00 303.00,212.00 303.00,212.00
             303.00,212.00 306.00,209.00 306.00,209.00
             306.00,209.00 306.00,203.00 306.00,203.00
             306.00,203.00 309.00,203.00 309.00,203.00
             309.00,203.00 309.00,110.00 309.00,110.00
             309.00,110.00 306.00,110.00 306.00,110.00
             306.00,110.00 306.00,98.00 306.00,98.00
             306.00,98.00 303.00,98.00 303.00,98.00
             303.00,98.00 303.00,92.00 303.00,92.00
             299.27,90.07 295.93,86.73 294.00,83.00
             294.00,83.00 288.00,83.00 288.00,83.00
             288.00,83.00 288.00,80.00 288.00,80.00
             288.00,80.00 282.00,80.00 282.00,80.00
             282.00,80.00 282.00,77.00 282.00,77.00
             282.00,77.00 198.00,77.00 198.00,77.00 Z" />
</svg>
