<?xml version="1.0" encoding="UTF-8" standalone="no"?>
<!DOCTYPE svg PUBLIC "-//W3C//DTD SVG 20010904//EN"
              "http://www.w3.org/TR/2001/REC-SVG-20010904/DTD/svg10.dtd">

<svg xmlns="http://www.w3.org/2000/svg"
     width="1.22in" height="1.22in"
     viewBox="0 0 366 366">
  <path id="Auswahl"
        fill="black" stroke="black" stroke-width="1"
        d="M 294.00,59.00
           C 294.00,59.00 271.00,82.00 271.00,82.00
             268.90,84.10 263.92,89.87 261.00,89.99
             258.56,90.10 254.88,86.69 253.00,85.21
             247.32,80.76 242.41,77.56 236.00,74.26
             218.67,65.32 197.55,59.78 178.00,60.00
             178.00,60.00 161.00,61.92 161.00,61.92
             109.69,70.40 70.40,109.69 61.92,161.00
             61.92,161.00 60.00,178.00 60.00,178.00
             59.78,197.55 65.32,218.67 74.26,236.00
             76.97,241.25 80.07,246.30 83.65,251.00
             85.12,252.92 89.49,257.94 89.89,260.00
             90.57,263.51 85.27,267.73 83.00,270.00
             83.00,270.00 67.00,286.00 67.00,286.00
             65.20,287.82 61.20,291.31 61.20,294.00
             61.20,296.51 64.37,299.30 66.00,301.00
             66.00,301.00 83.00,285.00 83.00,285.00
             83.00,285.00 99.00,268.00 99.00,268.00
             149.03,313.94 224.60,309.25 269.83,259.00
             287.75,239.09 299.68,208.89 300.00,182.00
             300.17,166.86 296.65,150.10 291.19,136.00
             286.77,124.59 277.61,107.49 268.00,100.00
             268.00,100.00 292.00,76.00 292.00,76.00
             294.09,73.91 299.80,68.96 299.80,66.00
             299.80,62.99 296.15,60.56 294.00,59.00 Z
           M 176.00,70.28
           C 193.85,68.64 221.86,77.43 237.00,86.81
             240.45,88.95 252.79,96.61 251.66,101.01
             251.06,103.38 245.88,108.12 244.00,110.00
             244.00,110.00 224.00,130.00 224.00,130.00
             224.00,130.00 149.00,205.00 149.00,205.00
             149.00,205.00 114.00,240.00 114.00,240.00
             111.46,242.54 103.31,251.80 100.04,251.80
             97.85,251.80 96.08,249.48 94.80,247.98
             91.36,243.93 88.32,239.56 85.60,235.00
             77.14,220.80 70.03,196.59 70.03,180.00
             70.03,180.00 71.28,168.00 71.28,168.00
             76.20,131.51 97.64,98.95 131.00,82.27
             146.72,74.41 159.11,72.72 176.00,70.28 Z
           M 261.00,107.00
           C 276.73,125.19 284.39,141.29 288.25,165.00
             288.25,165.00 289.96,181.00 289.96,181.00
             289.96,181.00 288.08,196.00 288.08,196.00
             280.12,244.19 244.19,280.12 196.00,288.08
             196.00,288.08 180.00,289.97 180.00,289.97
             172.20,289.97 155.56,286.80 148.00,284.33
             130.07,278.49 121.35,273.42 107.00,261.00
             107.00,261.00 134.00,233.00 134.00,233.00
             134.00,233.00 184.00,183.00 184.00,183.00
             184.00,183.00 233.00,134.00 233.00,134.00
             233.00,134.00 261.00,107.00 261.00,107.00 Z" />
</svg>
