<?xml version="1.0" encoding="UTF-8" standalone="no"?>
<!DOCTYPE svg PUBLIC "-//W3C//DTD SVG 20010904//EN"
              "http://www.w3.org/TR/2001/REC-SVG-20010904/DTD/svg10.dtd">

<svg xmlns="http://www.w3.org/2000/svg"
     width="1.12333in" height="1.22in"
     viewBox="0 0 337 366">
  <path id="Auswahl"
        fill="black" stroke="black" stroke-width="1"
        d="M 253.00,60.00
           C 253.00,60.00 209.83,44.95 209.83,44.95
             209.83,44.95 199.00,42.34 199.00,42.34
             186.92,38.86 170.48,34.82 158.00,35.00
             151.72,35.10 153.46,35.80 148.91,36.75
             144.69,37.63 142.42,37.63 138.00,39.23
             125.36,43.81 114.41,53.58 105.93,63.73
             88.36,84.75 75.16,109.17 61.84,133.00
             61.84,133.00 46.05,162.83 46.05,162.83
             46.05,162.83 39.63,174.00 39.63,174.00
             39.63,174.00 30.50,192.00 30.50,192.00
             28.36,195.63 20.05,208.64 23.04,212.38
             25.57,215.57 30.17,210.47 31.92,208.75
             38.40,202.39 49.38,191.94 54.62,185.15
             54.62,185.15 77.59,161.92 77.59,161.92
             77.59,161.92 91.75,147.84 91.75,147.84
             91.75,147.84 98.58,142.04 98.58,142.04
             98.58,142.04 109.43,131.33 109.43,131.33
             109.43,131.33 128.42,115.80 128.42,115.80
             138.68,108.05 143.33,105.06 155.83,101.85
             158.87,101.07 160.56,99.80 163.92,100.28
             163.92,100.28 169.17,101.97 169.17,101.97
             182.56,106.45 186.63,110.95 196.75,119.93
             196.75,119.93 207.00,129.00 207.00,129.00
             210.12,132.10 217.95,138.67 218.22,143.00
             218.45,146.65 215.15,152.79 213.64,156.17
             213.64,156.17 206.01,175.00 206.01,175.00
             204.65,178.30 201.30,185.08 205.49,187.79
             209.14,190.15 215.48,185.30 219.01,183.82
             219.01,183.82 256.00,166.04 256.00,166.04
             256.00,166.04 264.00,162.60 264.00,162.60
             264.00,162.60 302.03,144.23 302.03,144.23
             305.31,142.74 317.08,137.63 318.22,134.78
             319.82,130.80 316.37,125.20 314.70,121.72
             314.70,121.72 311.41,113.00 311.41,113.00
             311.41,113.00 304.67,97.72 304.67,97.72
             304.67,97.72 296.12,76.17 296.12,76.17
             296.12,76.17 282.00,43.04 282.00,43.04
             280.47,39.00 275.39,24.86 271.83,23.66
             267.54,22.20 265.76,28.07 264.45,31.00
             264.45,31.00 253.00,60.00 253.00,60.00 Z
           M 88.00,308.00
           C 95.44,312.59 106.64,314.96 114.91,317.94
             114.91,317.94 135.17,324.94 135.17,324.94
             135.17,324.94 147.96,327.84 147.96,327.84
             147.96,327.84 155.09,330.17 155.09,330.17
             173.52,334.72 195.98,334.79 212.72,325.02
             225.12,317.78 236.62,304.05 244.83,292.42
             257.13,274.98 267.72,256.66 278.03,238.00
             278.03,238.00 290.91,214.72 290.91,214.72
             290.91,214.72 298.18,200.08 298.18,200.08
             298.18,200.08 301.49,194.83 301.49,194.83
             301.49,194.83 310.11,177.42 310.11,177.42
             312.67,173.06 316.10,167.73 317.86,163.00
             318.38,161.22 319.30,158.29 317.86,156.62
             315.47,153.50 310.76,158.33 309.00,160.02
             301.10,167.58 293.15,175.31 286.31,183.83
             286.31,183.83 250.71,219.72 250.71,219.72
             250.71,219.72 244.00,225.18 244.00,225.18
             233.57,234.38 224.42,244.52 212.99,252.67
             202.58,260.08 190.54,268.85 177.00,267.82
             164.18,266.84 154.15,257.07 145.00,249.21
             145.00,249.21 134.25,239.75 134.25,239.75
             131.60,237.11 123.81,230.19 123.04,226.96
             122.22,223.53 124.96,219.13 126.26,216.00
             126.26,216.00 135.32,194.00 135.32,194.00
             136.56,190.73 139.73,183.66 135.32,181.06
             131.99,178.83 125.24,183.46 122.00,185.02
             122.00,185.02 114.28,188.12 114.28,188.12
             114.28,188.12 88.00,201.27 88.00,201.27
             88.00,201.27 74.17,207.48 74.17,207.48
             74.17,207.48 48.00,220.60 48.00,220.60
             48.00,220.60 39.00,224.58 39.00,224.58
             35.90,226.21 24.49,231.03 23.06,233.41
             21.78,235.54 22.78,238.86 23.61,241.00
             23.61,241.00 26.41,247.00 26.41,247.00
             26.41,247.00 30.79,258.00 30.79,258.00
             30.79,258.00 57.79,322.00 57.79,322.00
             57.79,322.00 65.39,340.00 65.39,340.00
             66.40,342.12 67.36,345.20 70.08,345.54
             73.96,346.03 75.80,340.80 76.83,337.96
             76.83,337.96 88.00,308.00 88.00,308.00 Z" />
</svg>
