<?xml version="1.0" encoding="UTF-8" standalone="no"?>
<!DOCTYPE svg PUBLIC "-//W3C//DTD SVG 20010904//EN"
              "http://www.w3.org/TR/2001/REC-SVG-20010904/DTD/svg10.dtd">

<svg xmlns="http://www.w3.org/2000/svg"
     width="4.06667in" height="4.06667in"
     viewBox="0 0 366 366">
  <path id="Auswahl"
        fill="black" stroke="black" stroke-width="1"
        d="M 109.00,99.74
           C 95.22,106.95 100.67,119.17 103.63,131.00
             103.63,131.00 112.37,168.00 112.37,168.00
             112.37,168.00 121.00,203.00 121.00,203.00
             123.03,212.50 125.61,229.47 133.04,235.72
             140.80,242.25 148.01,236.65 154.00,230.96
             155.83,229.22 159.38,225.04 162.00,225.04
             165.18,225.04 174.40,235.40 177.00,238.00
             177.00,238.00 216.28,277.96 216.28,277.96
             220.90,282.94 228.79,289.00 236.00,286.26
             240.58,284.52 253.74,270.26 258.00,266.00
             258.00,266.00 280.00,244.00 280.00,244.00
             283.13,240.85 287.84,236.59 288.52,232.00
             289.63,224.43 278.90,215.90 274.00,211.00
             274.00,211.00 243.00,180.00 243.00,180.00
             243.00,180.00 227.29,164.00 227.29,164.00
             224.21,159.55 227.99,157.16 230.96,154.00
             235.85,148.82 242.97,141.53 238.26,134.00
             232.64,125.02 217.66,122.88 208.00,120.79
             208.00,120.79 142.00,104.87 142.00,104.87
             133.26,102.75 117.19,97.76 109.00,99.74 Z" />
</svg>
