<?xml version="1.0" encoding="UTF-8" standalone="no"?>
<!DOCTYPE svg PUBLIC "-//W3C//DTD SVG 20010904//EN"
              "http://www.w3.org/TR/2001/REC-SVG-20010904/DTD/svg10.dtd">

<svg xmlns="http://www.w3.org/2000/svg"
     width="1.22in" height="1.22in"
     viewBox="0 0 366 366">
  <path id="Auswahl"
        fill="max" stroke="black" stroke-width="1"
        d="M 84.00,310.00
           C 84.00,264.28 90.44,217.23 102.12,173.00
             109.51,144.99 121.98,110.46 140.46,88.00
             140.46,88.00 153.00,75.00 153.00,75.00
             153.00,75.00 80.00,75.00 80.00,75.00
             80.00,75.00 80.00,65.00 80.00,65.00
             80.00,65.00 173.00,65.00 173.00,65.00
             168.62,56.54 169.00,55.18 169.00,46.00
             175.20,47.06 176.72,54.55 178.00,60.00
             178.00,60.00 180.00,60.00 180.00,60.00
             181.28,54.55 182.80,47.06 189.00,46.00
             189.00,55.18 189.38,56.54 185.00,65.00
             185.00,65.00 276.00,65.00 276.00,65.00
             276.00,65.00 276.00,75.00 276.00,75.00
             276.00,75.00 207.00,75.00 207.00,75.00
             207.00,75.00 219.54,88.00 219.54,88.00
             238.02,110.46 250.49,144.99 257.88,173.00
             269.63,217.50 276.00,264.00 276.00,310.00
             276.00,310.00 267.00,310.00 267.00,310.00
             265.71,302.81 266.03,302.06 266.00,295.00
             266.00,295.00 265.09,284.00 265.09,284.00
             265.09,284.00 262.84,257.00 262.84,257.00
             258.71,218.48 249.00,169.50 233.72,134.00
             224.08,111.60 209.50,84.24 185.00,76.00
             189.18,86.45 189.00,84.83 189.00,96.00
             182.80,94.94 181.28,87.45 180.00,82.00
             180.00,82.00 178.00,82.00 178.00,82.00
             176.72,87.45 175.20,94.94 169.00,96.00
             169.00,86.82 168.62,85.46 173.00,77.00
             164.26,79.19 156.44,86.24 150.75,93.00
             140.48,105.22 133.43,117.38 127.15,132.00
             111.04,169.52 101.51,216.41 97.16,257.00
             97.16,257.00 94.91,284.00 94.91,284.00
             94.91,284.00 94.00,296.00 94.00,296.00
             93.99,302.60 94.20,303.33 93.00,310.00
             93.00,310.00 84.00,310.00 84.00,310.00 Z" />
</svg>
