<?xml version="1.0" encoding="UTF-8" standalone="no"?>
<!DOCTYPE svg PUBLIC "-//W3C//DTD SVG 20010904//EN"
              "http://www.w3.org/TR/2001/REC-SVG-20010904/DTD/svg10.dtd">

<svg xmlns="http://www.w3.org/2000/svg"
     width="1.22in" height="1.22in"
     viewBox="0 0 366 366">
  <path id="Auswahl"
        fill="black" stroke="black" stroke-width="1"
        d="M 30.00,78.00
           C 30.00,78.00 30.00,98.00 30.00,98.00
             30.00,98.00 43.00,98.00 43.00,98.00
             43.00,98.00 43.00,113.00 43.00,113.00
             43.00,113.00 30.00,113.00 30.00,113.00
             30.00,113.00 30.00,133.00 30.00,133.00
             33.18,133.00 42.22,132.46 44.59,134.02
             47.06,135.66 48.90,142.11 50.37,145.00
             53.23,150.59 58.05,156.49 63.00,160.32
             78.01,171.94 101.65,174.67 120.00,172.28
             124.03,171.76 135.64,170.78 137.98,167.49
             139.23,165.73 139.00,162.13 139.00,160.00
             139.00,160.00 139.00,144.00 139.00,144.00
             139.00,144.00 125.00,146.57 125.00,146.57
             113.75,148.46 96.99,149.21 87.00,142.87
             82.61,140.08 80.22,136.92 77.00,133.00
             77.00,133.00 110.00,133.00 110.00,133.00
             110.00,133.00 110.00,113.00 110.00,113.00
             110.00,113.00 73.00,113.00 73.00,113.00
             73.00,113.00 73.00,98.00 73.00,98.00
             73.00,98.00 119.00,98.00 119.00,98.00
             119.00,98.00 119.00,78.00 119.00,78.00
             119.00,78.00 78.00,78.00 78.00,78.00
             79.75,74.43 81.16,71.98 84.09,69.18
             94.72,59.05 110.48,58.96 124.00,61.42
             124.00,61.42 137.00,64.00 137.00,64.00
             137.00,64.00 137.00,48.00 137.00,48.00
             137.00,45.82 137.22,42.26 135.98,40.43
             134.53,38.29 131.35,37.72 129.00,37.21
             123.54,36.02 116.57,35.03 111.00,35.00
             94.60,34.92 78.02,37.48 65.00,48.32
             59.44,52.96 54.73,58.61 51.32,65.00
             49.62,68.20 47.51,75.25 44.73,76.98
             42.25,78.52 33.28,78.00 30.00,78.00 Z
           M 272.00,49.74
           C 265.79,52.98 256.36,63.64 251.00,69.00
             251.00,69.00 212.00,108.00 212.00,108.00
             212.00,108.00 83.00,237.00 83.00,237.00
             83.00,237.00 53.00,267.00 53.00,267.00
             53.00,267.00 37.43,283.00 37.43,283.00
             32.12,290.30 37.01,301.41 46.00,302.76
             53.22,303.85 59.38,295.62 64.00,291.00
             64.00,291.00 106.00,249.00 106.00,249.00
             106.00,249.00 254.00,101.00 254.00,101.00
             254.00,101.00 276.00,79.00 276.00,79.00
             278.82,76.18 285.20,70.26 286.83,67.00
             291.00,58.65 283.10,47.16 272.00,49.74 Z
           M 154.00,213.00
           C 154.00,213.00 154.00,331.00 154.00,331.00
             154.00,331.00 176.00,331.00 176.00,331.00
             176.00,331.00 176.00,259.00 176.00,259.00
             176.00,259.00 175.00,241.00 175.00,241.00
             175.00,241.00 190.69,285.00 190.69,285.00
             190.69,285.00 207.00,331.00 207.00,331.00
             207.00,331.00 222.00,331.00 222.00,331.00
             222.00,331.00 228.95,311.00 228.95,311.00
             234.23,296.57 250.53,253.22 253.00,241.00
             253.00,241.00 253.92,246.00 253.92,246.00
             253.92,246.00 253.03,254.00 253.03,254.00
             253.03,254.00 253.03,269.00 253.03,269.00
             253.03,269.00 253.03,331.00 253.03,331.00
             253.03,331.00 275.00,331.00 275.00,331.00
             275.00,331.00 275.00,213.00 275.00,213.00
             275.00,213.00 244.00,213.00 244.00,213.00
             239.29,233.64 218.07,279.11 215.00,299.00
             215.00,299.00 205.67,272.00 205.67,272.00
             205.67,272.00 192.00,234.00 192.00,234.00
             192.00,234.00 183.50,214.02 183.50,214.02
             183.50,214.02 176.00,213.00 176.00,213.00
             176.00,213.00 154.00,213.00 154.00,213.00 Z
           M 326.00,213.00
           C 326.00,213.00 326.00,297.00 326.00,297.00
             325.87,307.46 322.34,314.21 311.00,314.91
             304.82,315.29 299.02,312.93 293.00,312.00
             293.00,312.00 293.00,323.00 293.00,323.00
             293.01,324.86 292.83,327.76 293.99,329.30
             296.58,332.73 308.83,333.02 313.00,333.00
             333.92,332.91 347.90,323.00 348.00,301.00
             348.00,301.00 348.00,213.00 348.00,213.00
             348.00,213.00 326.00,213.00 326.00,213.00 Z" />
</svg>
