<?xml version="1.0" encoding="UTF-8" standalone="no"?>
<!DOCTYPE svg PUBLIC "-//W3C//DTD SVG 20010904//EN"
              "http://www.w3.org/TR/2001/REC-SVG-20010904/DTD/svg10.dtd">

<svg xmlns="http://www.w3.org/2000/svg"
     width="1.22in" height="1.22in"
     viewBox="0 0 366 366">
  <path id="Auswahl #1"
        fill="black" stroke="black" stroke-width="1"
        d="M 185.17,33.75
           C 178.52,37.79 177.95,44.26 172.82,48.69
             169.37,51.66 162.43,52.21 158.00,51.96
             147.37,51.35 146.28,40.94 139.91,36.60
             134.54,32.94 121.87,39.14 117.11,42.47
             109.03,48.10 115.95,56.41 115.85,64.00
             115.79,69.24 108.21,77.46 104.03,80.31
             96.11,85.73 85.29,75.44 78.65,83.23
             76.59,85.63 71.51,99.84 71.47,103.00
             71.45,104.58 71.73,105.58 72.61,106.91
             75.46,111.22 84.23,114.37 87.44,118.32
             90.28,121.83 90.07,127.69 90.00,132.00
             89.88,138.44 88.13,140.38 83.00,144.24
             78.49,147.64 72.46,150.23 73.57,157.00
             74.16,160.62 80.01,174.00 82.63,176.26
             83.69,177.17 84.69,177.53 86.04,177.76
             95.35,179.31 101.10,170.30 111.00,179.11
             114.30,182.04 119.25,186.47 119.84,191.00
             120.43,195.50 117.57,202.56 118.16,206.98
             118.41,208.88 118.91,210.03 120.31,211.36
             122.88,213.81 137.43,219.50 140.99,219.45
             147.17,219.36 150.25,210.19 153.61,206.06
             157.19,201.65 161.64,201.14 167.00,201.01
             171.78,200.91 175.07,200.78 178.83,204.23
             185.58,210.41 186.72,220.23 197.00,216.90
             201.72,215.37 213.67,210.67 215.39,205.96
             216.92,201.74 213.14,193.92 213.14,189.00
             213.15,185.13 214.74,182.84 217.19,180.00
             220.51,176.14 224.64,171.40 230.00,171.07
             236.49,170.67 245.28,175.97 250.15,169.85
             252.47,166.95 257.52,153.69 257.45,150.00
             257.42,148.02 256.81,146.70 255.57,145.18
             249.66,137.95 241.52,140.75 239.44,128.00
             238.56,122.61 238.28,116.42 242.23,112.18
             245.99,108.14 253.53,105.36 255.39,100.00
             256.90,95.63 253.60,89.87 251.78,86.00
             249.99,82.19 248.44,76.67 243.91,75.44
             237.99,73.84 229.25,80.00 223.00,76.98
             218.34,74.73 209.14,66.44 208.77,61.00
             208.44,56.26 211.31,47.93 210.02,44.04
             207.94,37.75 191.15,32.50 185.17,33.75 Z
           M 158.00,87.30
           C 165.74,86.53 173.85,87.01 181.00,90.32
             185.78,92.54 189.30,95.24 192.96,99.01
             217.65,124.49 198.61,167.40 163.00,165.96
             125.66,164.45 110.58,116.84 142.00,93.93
             147.25,90.10 151.70,88.49 158.00,87.30 Z
           M 254.69,191.99
           C 251.76,195.35 250.36,199.99 245.00,200.19
             239.81,200.39 237.93,194.61 232.02,197.59
             222.83,202.22 231.95,207.30 227.82,213.89
             224.25,219.58 218.69,217.49 216.51,221.31
             210.68,231.49 223.11,230.92 224.51,238.02
             225.56,243.33 219.44,246.18 222.00,251.98
             226.13,261.38 231.63,253.77 236.98,256.22
             243.90,259.38 241.50,266.17 246.15,268.26
             256.43,272.89 255.58,261.22 263.00,260.09
             268.17,259.30 270.06,264.41 275.00,263.17
             285.56,260.52 277.98,252.10 280.83,247.02
             284.65,240.22 290.53,244.03 292.97,237.94
             297.26,227.24 286.34,229.49 284.61,221.98
             283.09,215.91 293.13,211.00 284.61,204.60
             279.95,201.03 276.77,206.47 271.05,203.42
             263.23,199.24 269.29,190.46 258.04,191.07
             256.07,191.17 256.33,191.30 254.69,191.99 Z
           M 251.00,214.34
           C 254.77,213.90 258.49,213.68 262.00,215.45
             276.68,222.89 272.12,247.30 253.00,245.90
             235.83,244.65 233.08,219.17 251.00,214.34 Z
           M 162.11,219.74
           C 155.17,224.14 160.06,230.05 151.00,234.43
             142.50,238.53 139.06,231.22 134.00,231.08
             131.23,231.00 128.88,233.21 127.04,235.04
             126.00,236.09 124.53,237.70 123.83,239.00
             121.04,244.19 125.87,247.91 127.07,252.00
             127.86,254.71 126.96,257.58 125.59,259.96
             120.92,268.05 112.67,263.32 110.43,271.04
             109.48,274.33 109.53,281.78 112.43,284.07
             116.05,286.92 122.19,284.73 125.94,293.00
             130.66,303.41 119.02,304.96 123.75,313.00
             124.49,314.25 126.00,315.93 127.04,316.94
             136.28,325.93 138.76,314.83 147.00,316.31
             162.05,319.03 151.58,332.74 166.00,333.00
             168.23,333.04 172.68,333.27 174.49,331.98
             176.83,330.31 176.82,326.54 177.88,324.02
             179.35,320.51 182.42,318.14 186.00,316.99
             193.50,314.56 196.73,323.24 203.00,320.72
             204.42,320.15 205.87,318.92 206.98,317.89
             209.19,315.86 211.68,313.20 211.63,310.00
             211.55,304.13 204.52,302.06 208.92,293.02
             213.56,283.46 222.33,289.19 224.57,281.89
             225.74,278.07 225.37,270.44 221.77,267.93
             217.31,264.82 211.97,268.02 208.69,258.00
             205.06,248.17 218.47,246.16 208.69,236.04
             207.88,234.97 206.27,233.50 205.00,232.75
             196.86,227.95 195.44,239.88 185.00,234.72
             176.11,230.32 179.42,225.41 176.15,221.31
             173.47,217.96 165.82,218.80 162.11,219.74 Z
           M 166.00,252.33
           C 192.66,251.77 199.97,286.01 178.00,297.00
             173.99,299.01 170.38,299.09 166.00,298.99
             149.57,298.59 138.89,280.86 145.92,266.00
             149.89,257.60 157.21,253.67 166.00,252.33 Z" />
</svg>
