<?xml version="1.0" encoding="UTF-8" standalone="no"?>
<!DOCTYPE svg PUBLIC "-//W3C//DTD SVG 20010904//EN"
              "http://www.w3.org/TR/2001/REC-SVG-20010904/DTD/svg10.dtd">

<svg xmlns="http://www.w3.org/2000/svg"
     width="4.06667in" height="4.06667in"
     viewBox="0 0 366 366">
  <path id="Auswahl"
        fill="black" stroke="black" stroke-width="1"
        d="M 158.00,187.00
           C 158.00,187.00 158.00,126.19 158.00,126.19
             161.84,126.92 163.06,127.08 167.00,126.19
             169.57,125.93 172.73,125.24 174.98,123.91
             183.15,119.11 183.34,106.86 180.05,99.00
             180.05,99.00 173.31,87.00 173.31,87.00
             170.51,81.84 168.53,76.10 163.00,73.16
             151.19,66.89 129.01,72.29 116.00,73.85
             110.83,74.46 103.07,74.60 99.22,78.28
             94.77,82.53 94.94,88.34 95.00,94.00
             95.00,94.00 95.76,105.00 95.76,105.00
             95.76,105.00 85.34,128.00 85.34,128.00
             85.34,128.00 77.95,150.00 77.95,150.00
             69.78,172.28 66.77,176.71 62.39,201.00
             61.30,207.01 60.08,210.71 60.00,217.00
             60.00,217.00 59.00,245.00 59.00,245.00
             59.01,249.50 58.95,251.55 60.16,256.00
             65.44,275.50 81.78,275.03 98.00,275.00
             104.08,274.99 106.08,274.78 112.00,273.09
             114.51,272.37 118.58,270.54 121.00,270.84
             123.48,271.14 132.43,277.45 136.00,279.24
             145.72,284.11 156.10,286.98 167.00,287.00
             176.41,287.01 182.60,287.47 192.00,285.55
             196.05,284.72 204.98,281.26 208.00,281.57
             211.52,281.94 220.77,288.49 226.00,290.54
             236.01,294.46 242.65,294.02 253.00,294.00
             260.84,293.99 267.86,292.57 275.00,289.22
             328.03,264.35 319.94,184.16 272.00,166.69
             265.85,164.45 260.58,163.08 254.00,163.00
             238.44,162.82 227.31,164.05 214.00,173.22
             206.53,178.36 201.53,185.78 197.00,187.40
             193.59,188.61 186.78,186.75 183.00,186.29
             177.15,185.57 163.60,185.64 158.00,187.00 Z" />
</svg>
