<?xml version="1.0" encoding="UTF-8" standalone="no"?>
<!DOCTYPE svg PUBLIC "-//W3C//DTD SVG 20010904//EN"
              "http://www.w3.org/TR/2001/REC-SVG-20010904/DTD/svg10.dtd">

<svg xmlns="http://www.w3.org/2000/svg"
     width="4.06667in" height="4.06667in"
     viewBox="0 0 366 366">
  <path id="Auswahl"
        fill="black" stroke="black" stroke-width="1"
        d="M 174.00,78.21
           C 165.45,79.66 159.43,80.35 151.00,83.03
             122.30,92.12 98.23,114.39 86.43,142.00
             61.94,199.26 92.84,269.09 154.00,285.85
             161.59,287.93 172.17,289.90 180.00,290.00
             198.36,290.21 214.40,287.43 231.00,279.24
             278.92,255.62 301.88,199.37 284.31,149.00
             278.27,131.71 269.96,119.81 257.00,107.00
             247.60,97.71 236.24,90.56 224.00,85.60
             212.59,80.98 198.31,78.02 186.00,78.21
             186.00,78.21 174.00,78.21 174.00,78.21 Z
           M 191.00,154.00
           C 195.71,146.79 202.84,134.78 209.04,129.19
             211.08,127.35 216.33,123.35 218.81,126.58
             220.95,129.36 218.04,137.90 217.00,141.00
             212.84,153.32 203.45,168.84 195.33,179.00
             192.72,182.27 185.19,190.78 180.42,187.31
             176.82,184.70 175.36,172.44 174.58,168.00
             172.37,151.48 172.17,127.53 174.58,111.00
             175.10,106.07 175.96,99.70 177.44,95.00
             178.03,93.13 179.10,90.01 181.18,89.34
             183.96,88.43 185.50,91.99 186.24,94.00
             187.75,98.14 189.39,108.42 189.83,113.00
             189.83,113.00 191.00,130.00 191.00,130.00
             191.00,130.00 191.00,154.00 191.00,154.00 Z" />
</svg>
