<?xml version="1.0" encoding="UTF-8" standalone="no"?>
<!DOCTYPE svg PUBLIC "-//W3C//DTD SVG 20010904//EN"
              "http://www.w3.org/TR/2001/REC-SVG-20010904/DTD/svg10.dtd">

<svg xmlns="http://www.w3.org/2000/svg"
     width="1.22in" height="1.22in"
     viewBox="0 0 366 366">
  <path id="Auswahl #3"
        fill="black" stroke="black" stroke-width="1"
        d="M 97.00,82.15
           C 79.86,86.28 72.03,97.95 72.00,115.00
             72.00,115.00 72.00,239.00 72.00,239.00
             72.03,259.82 84.18,271.97 105.00,272.00
             105.00,272.00 269.00,272.00 269.00,272.00
             289.82,271.97 301.97,259.82 302.00,239.00
             302.00,239.00 302.00,115.00 302.00,115.00
             301.97,94.18 289.82,82.03 269.00,82.15
             269.00,82.15 156.00,82.15 156.00,82.15
             156.00,82.15 97.00,82.15 97.00,82.15 Z
           M 196.00,117.00
           C 196.00,117.00 195.00,184.00 195.00,184.00
             195.00,184.00 176.00,184.00 176.00,184.00
             176.00,184.00 176.00,157.00 176.00,157.00
             176.00,157.00 175.00,140.00 175.00,140.00
             175.00,140.00 175.00,117.00 175.00,117.00
             175.00,117.00 196.00,117.00 196.00,117.00 Z
           M 197.00,201.00
           C 197.00,201.00 197.00,222.00 197.00,222.00
             197.00,222.00 174.00,222.00 174.00,222.00
             174.00,222.00 174.00,201.00 174.00,201.00
             174.00,201.00 197.00,201.00 197.00,201.00 Z" />
</svg>
