<?xml version="1.0" encoding="UTF-8" standalone="no"?>
<!DOCTYPE svg PUBLIC "-//W3C//DTD SVG 20010904//EN"
              "http://www.w3.org/TR/2001/REC-SVG-20010904/DTD/svg10.dtd">

<svg xmlns="http://www.w3.org/2000/svg"
     width="1.22in" height="1.22in"
     viewBox="0 0 366 366">
  <path id="Auswahl"
        fill="black" stroke="black" stroke-width="1"
        d="M 157.00,52.21
           C 157.00,52.21 133.00,54.09 133.00,54.09
             116.54,55.24 93.57,58.54 78.00,63.67
             69.69,66.41 56.47,72.00 53.65,81.00
             52.89,83.41 53.00,86.47 53.00,89.00
             53.00,89.00 53.00,273.00 53.00,273.00
             53.03,290.05 63.84,294.80 78.00,300.40
             100.98,309.49 127.66,310.42 152.00,312.09
             152.00,312.09 162.00,313.00 162.00,313.00
             199.66,313.44 240.36,312.90 277.00,303.63
             288.69,300.67 307.37,294.24 311.87,282.00
             313.12,278.58 312.99,275.56 313.00,272.00
             313.00,272.00 313.00,89.00 313.00,89.00
             313.00,85.98 313.15,82.86 311.99,80.00
             307.64,69.27 288.47,63.37 278.00,60.88
             256.56,55.79 234.85,54.41 213.00,52.91
             213.00,52.91 201.00,52.21 201.00,52.21
             201.00,52.21 157.00,52.21 157.00,52.21 Z
           M 297.00,84.00
           C 297.00,84.00 297.00,86.00 297.00,86.00
             281.89,94.56 263.02,97.06 246.00,99.28
             207.15,104.35 166.93,104.33 128.00,100.16
             109.62,98.20 85.11,95.13 69.00,86.00
             69.00,86.00 69.00,84.00 69.00,84.00
             80.46,77.51 94.11,74.75 107.00,72.59
             122.16,70.04 137.64,68.18 153.00,68.00
             153.00,68.00 168.00,67.00 168.00,67.00
             196.73,66.96 225.59,67.25 254.00,71.92
             268.98,74.38 283.38,77.01 297.00,84.00 Z
           M 298.00,103.00
           C 298.00,103.00 298.00,142.00 298.00,142.00
             298.00,144.04 298.11,147.11 297.40,148.98
             294.91,155.56 282.27,158.83 276.00,160.58
             256.74,165.94 236.83,167.73 217.00,169.09
             217.00,169.09 205.00,170.00 205.00,170.00
             167.91,170.06 136.82,170.62 100.00,163.00
             92.11,161.36 72.91,157.30 69.02,149.96
             67.81,147.67 68.01,144.54 68.00,142.00
             68.00,142.00 68.00,103.00 68.00,103.00
             68.00,103.00 83.00,107.57 83.00,107.57
             83.00,107.57 105.00,112.57 105.00,112.57
             149.25,119.99 209.50,119.72 254.00,113.72
             262.50,112.57 274.74,109.93 283.00,107.57
             283.00,107.57 298.00,103.00 298.00,103.00 Z
           M 298.00,169.00
           C 298.00,169.00 298.00,206.00 298.00,206.00
             297.99,208.54 298.19,211.67 296.98,213.96
             293.09,221.30 273.89,225.36 266.00,227.00
             227.43,234.98 198.70,234.06 160.00,234.00
             160.00,234.00 148.00,233.09 148.00,233.09
             128.21,231.73 109.31,229.52 90.00,224.63
             83.70,223.03 71.09,219.56 68.60,212.98
             67.89,211.11 68.00,208.04 68.00,206.00
             68.00,206.00 68.00,169.00 68.00,169.00
             68.00,169.00 84.00,174.57 84.00,174.57
             94.93,177.91 108.62,180.61 120.00,181.84
             165.14,186.68 216.17,187.10 261.00,179.57
             278.10,176.69 292.16,170.09 298.00,169.00 Z
           M 298.00,232.00
           C 298.00,232.00 298.00,269.00 298.00,269.00
             298.00,271.80 298.21,275.39 296.83,277.90
             293.81,283.34 279.95,287.28 274.00,288.85
             259.67,292.62 229.66,296.98 215.00,297.00
             215.00,297.00 197.00,298.00 197.00,298.00
             161.80,298.16 132.76,297.26 98.00,290.20
             91.10,288.80 72.59,284.06 69.17,277.90
             67.79,275.39 68.00,271.80 68.00,269.00
             68.00,269.00 68.00,233.00 68.00,233.00
             68.00,233.00 83.00,238.33 83.00,238.33
             89.85,240.59 96.92,242.06 104.00,243.39
             122.86,246.92 146.82,248.97 166.00,249.00
             166.00,249.00 181.00,250.00 181.00,250.00
             181.00,250.00 195.00,249.04 195.00,249.04
             195.00,249.04 208.00,249.04 208.00,249.04
             208.00,249.04 231.00,247.17 231.00,247.17
             257.65,244.59 272.93,242.63 298.00,232.00 Z" />
</svg>
