<?xml version="1.0" encoding="UTF-8" standalone="no"?>
<!DOCTYPE svg PUBLIC "-//W3C//DTD SVG 20010904//EN"
              "http://www.w3.org/TR/2001/REC-SVG-20010904/DTD/svg10.dtd">

<svg xmlns="http://www.w3.org/2000/svg"
     width="4.06667in" height="4.06667in"
     viewBox="0 0 366 366">
  <path id="Auswahl"
        fill="black" stroke="black" stroke-width="1"
        d="M 202.00,98.02
           C 192.98,104.16 192.40,115.38 180.00,114.73
             170.51,114.23 169.12,105.52 162.83,100.85
             156.02,95.81 144.59,99.48 138.00,103.48
             136.36,104.47 134.54,105.78 133.23,107.18
             126.35,114.54 132.65,124.16 131.57,130.00
             130.78,134.27 126.31,139.12 123.00,141.72
             116.10,147.14 111.97,141.81 103.00,143.21
             93.88,144.64 88.63,159.78 88.21,168.00
             87.53,181.69 105.37,179.71 106.80,194.00
             107.93,205.25 97.21,207.71 92.63,214.04
             88.60,219.66 90.31,225.11 92.63,231.00
             94.83,236.66 97.74,244.21 104.01,246.20
             110.70,248.32 117.79,244.11 122.00,244.57
             125.74,244.98 129.45,248.36 131.89,251.02
             133.26,252.50 134.52,254.05 135.20,255.91
             137.37,260.47 134.61,264.41 135.20,272.00
             135.20,274.73 135.59,276.65 137.43,278.79
             141.71,283.78 159.76,290.91 166.91,286.11
             173.19,281.88 173.73,273.25 182.00,270.65
             196.11,266.21 199.40,279.80 206.09,284.22
             210.56,287.24 217.32,285.94 222.00,284.22
             227.29,282.20 234.29,279.31 236.98,274.00
             239.85,268.33 236.18,258.16 236.40,255.00
             236.79,249.42 244.60,241.56 250.00,240.45
             252.40,239.96 257.08,240.92 260.00,240.99
             263.32,241.06 267.09,241.33 269.96,239.40
             275.98,235.37 282.25,217.81 278.83,211.00
             274.03,201.46 261.32,202.94 262.05,188.00
             262.51,178.49 270.66,177.41 275.57,170.96
             278.34,167.32 278.46,162.33 277.47,158.00
             275.96,151.42 271.18,140.05 264.00,138.39
             257.27,136.84 250.63,140.64 246.42,139.97
             243.99,139.58 240.86,137.24 239.01,135.67
             236.10,133.19 232.54,129.36 231.95,125.42
             231.38,121.54 234.02,114.25 232.57,109.00
             229.79,98.93 210.74,95.09 202.00,98.02 Z
           M 178.00,156.32
           C 185.56,155.50 193.08,155.92 200.00,159.38
             211.70,165.22 220.82,178.72 220.82,192.00
             220.82,211.37 202.84,230.25 183.00,228.68
             174.17,227.97 164.45,224.20 158.18,217.83
             143.16,202.53 145.19,176.54 162.00,163.53
             166.69,159.89 172.25,157.61 178.00,156.32 Z" />
</svg>
