<?xml version="1.0" encoding="UTF-8" standalone="no"?>
<!DOCTYPE svg PUBLIC "-//W3C//DTD SVG 20010904//EN"
              "http://www.w3.org/TR/2001/REC-SVG-20010904/DTD/svg10.dtd">

<svg xmlns="http://www.w3.org/2000/svg"
     width="1.22in" height="1.22in"
     viewBox="0 0 366 366">
  <path id="Auswahl"
        fill="black" stroke="black" stroke-width="1"
        d="M 77.60,39.02
           C 74.79,42.95 76.00,54.80 76.00,60.00
             76.00,60.00 76.00,114.00 76.00,114.00
             76.00,114.00 76.00,319.00 76.00,319.00
             76.00,321.30 75.62,325.41 77.60,326.98
             79.49,328.48 87.34,328.00 90.00,328.00
             90.00,328.00 123.00,328.00 123.00,328.00
             123.00,328.00 279.00,328.00 279.00,328.00
             281.30,328.00 285.41,328.38 286.98,326.40
             288.23,324.81 288.00,320.99 288.00,319.00
             288.00,319.00 288.00,292.00 288.00,292.00
             288.00,292.00 288.00,175.00 288.00,175.00
             288.00,175.00 288.00,47.00 288.00,47.00
             288.00,44.70 288.38,40.59 286.40,39.02
             284.51,37.52 276.66,38.00 274.00,38.00
             274.00,38.00 241.00,38.00 241.00,38.00
             241.00,38.00 126.00,38.00 126.00,38.00
             126.00,38.00 94.00,38.00 94.00,38.00
             89.13,38.00 81.97,37.16 77.60,39.02 Z
           M 281.00,46.00
           C 281.00,46.00 281.00,321.00 281.00,321.00
             281.00,321.00 83.00,321.00 83.00,321.00
             83.00,321.00 83.00,46.00 83.00,46.00
             83.00,46.00 281.00,46.00 281.00,46.00 Z
           M 133.60,79.02
           C 131.83,81.50 132.06,81.95 132.00,85.00
             131.96,87.23 131.68,92.70 133.02,94.40
             134.37,96.10 137.05,95.96 139.00,96.00
             139.00,96.00 156.00,96.00 156.00,96.00
             156.00,96.00 254.00,96.00 254.00,96.00
             260.74,95.99 262.86,96.49 263.00,89.00
             263.04,86.77 263.32,81.30 261.98,79.60
             260.63,77.90 257.95,78.04 256.00,78.00
             256.00,78.00 235.00,78.00 235.00,78.00
             235.00,78.00 165.00,78.00 165.00,78.00
             158.51,78.00 138.40,76.98 133.60,79.02 Z
           M 99.00,79.00
           C 99.00,79.00 99.00,97.00 99.00,97.00
             99.00,97.00 120.00,97.00 120.00,97.00
             120.00,97.00 120.00,79.00 120.00,79.00
             120.00,79.00 99.00,79.00 99.00,79.00 Z
           M 255.00,86.00
           C 255.00,86.00 255.00,88.00 255.00,88.00
             255.00,88.00 140.00,88.00 140.00,88.00
             140.00,88.00 140.00,86.00 140.00,86.00
             140.00,86.00 255.00,86.00 255.00,86.00 Z
           M 112.00,87.00
           C 112.00,87.00 112.00,89.00 112.00,89.00
             112.00,89.00 107.00,89.00 107.00,89.00
             107.00,89.00 107.00,87.00 107.00,87.00
             107.00,87.00 112.00,87.00 112.00,87.00 Z
           M 99.00,112.00
           C 99.00,112.00 99.00,130.00 99.00,130.00
             99.00,130.00 120.00,130.00 120.00,130.00
             120.00,130.00 120.00,112.00 120.00,112.00
             120.00,112.00 99.00,112.00 99.00,112.00 Z
           M 133.60,113.02
           C 131.44,116.03 131.98,118.38 132.00,122.00
             132.01,123.82 131.85,126.93 133.02,128.40
             134.37,130.10 137.05,129.96 139.00,130.00
             139.00,130.00 154.00,130.00 154.00,130.00
             154.00,130.00 224.00,130.00 224.00,130.00
             231.72,129.98 232.95,130.13 233.00,122.00
             233.01,119.87 233.29,115.26 231.98,113.60
             229.96,111.05 215.68,112.00 212.00,112.00
             212.00,112.00 158.00,112.00 158.00,112.00
             152.35,112.00 138.08,111.11 133.60,113.02 Z
           M 112.00,120.00
           C 112.00,120.00 112.00,122.00 112.00,122.00
             112.00,122.00 107.00,122.00 107.00,122.00
             107.00,122.00 107.00,120.00 107.00,120.00
             107.00,120.00 112.00,120.00 112.00,120.00 Z
           M 225.00,120.00
           C 225.00,120.00 225.00,122.00 225.00,122.00
             225.00,122.00 140.00,122.00 140.00,122.00
             140.00,122.00 140.00,120.00 140.00,120.00
             140.00,120.00 225.00,120.00 225.00,120.00 Z
           M 99.00,144.00
           C 99.00,144.00 99.00,162.00 99.00,162.00
             99.00,162.00 120.00,162.00 120.00,162.00
             120.00,162.00 120.00,144.00 120.00,144.00
             120.00,144.00 99.00,144.00 99.00,144.00 Z
           M 133.60,145.02
           C 131.83,147.50 132.06,147.95 132.00,151.00
             131.96,153.23 131.68,158.70 133.02,160.40
             134.37,162.10 137.05,161.96 139.00,162.00
             139.00,162.00 156.00,162.00 156.00,162.00
             156.00,162.00 254.00,162.00 254.00,162.00
             260.74,161.99 262.86,162.49 263.00,155.00
             263.04,152.77 263.32,147.30 261.98,145.60
             260.63,143.90 257.95,144.04 256.00,144.00
             256.00,144.00 235.00,144.00 235.00,144.00
             235.00,144.00 165.00,144.00 165.00,144.00
             158.51,144.00 138.40,142.98 133.60,145.02 Z
           M 112.00,152.00
           C 112.00,152.00 112.00,154.00 112.00,154.00
             112.00,154.00 107.00,154.00 107.00,154.00
             107.00,154.00 107.00,152.00 107.00,152.00
             107.00,152.00 112.00,152.00 112.00,152.00 Z
           M 255.00,152.00
           C 255.00,152.00 255.00,154.00 255.00,154.00
             255.00,154.00 140.00,154.00 140.00,154.00
             140.00,154.00 140.00,152.00 140.00,152.00
             140.00,152.00 255.00,152.00 255.00,152.00 Z
           M 99.00,174.00
           C 99.00,174.00 99.00,192.00 99.00,192.00
             99.00,192.00 120.00,192.00 120.00,192.00
             120.00,192.00 120.00,174.00 120.00,174.00
             120.00,174.00 99.00,174.00 99.00,174.00 Z
           M 133.60,176.02
           C 131.83,178.50 132.06,178.95 132.00,182.00
             131.96,184.23 131.68,189.70 133.02,191.40
             134.37,193.10 137.05,192.96 139.00,193.00
             139.00,193.00 156.00,193.00 156.00,193.00
             156.00,193.00 254.00,193.00 254.00,193.00
             260.74,192.99 262.86,193.49 263.00,186.00
             263.04,183.77 263.32,178.30 261.98,176.60
             260.63,174.90 257.95,175.04 256.00,175.00
             256.00,175.00 235.00,175.00 235.00,175.00
             235.00,175.00 165.00,175.00 165.00,175.00
             158.51,175.00 138.40,173.98 133.60,176.02 Z
           M 112.00,182.00
           C 112.00,182.00 112.00,184.00 112.00,184.00
             112.00,184.00 107.00,184.00 107.00,184.00
             107.00,184.00 107.00,182.00 107.00,182.00
             107.00,182.00 112.00,182.00 112.00,182.00 Z
           M 255.00,183.00
           C 255.00,183.00 255.00,185.00 255.00,185.00
             255.00,185.00 140.00,185.00 140.00,185.00
             140.00,185.00 140.00,183.00 140.00,183.00
             140.00,183.00 255.00,183.00 255.00,183.00 Z
           M 99.00,205.00
           C 99.00,205.00 99.00,223.00 99.00,223.00
             99.00,223.00 120.00,223.00 120.00,223.00
             120.00,223.00 120.00,205.00 120.00,205.00
             120.00,205.00 99.00,205.00 99.00,205.00 Z
           M 133.60,207.02
           C 131.44,210.03 131.98,212.38 132.00,216.00
             132.01,217.82 131.85,220.93 133.02,222.40
             134.37,224.10 137.05,223.96 139.00,224.00
             139.00,224.00 154.00,224.00 154.00,224.00
             154.00,224.00 224.00,224.00 224.00,224.00
             231.72,223.98 232.95,224.13 233.00,216.00
             233.01,213.87 233.29,209.26 231.98,207.60
             229.96,205.05 215.68,206.00 212.00,206.00
             212.00,206.00 158.00,206.00 158.00,206.00
             152.35,206.00 138.08,205.11 133.60,207.02 Z
           M 112.00,213.00
           C 112.00,213.00 112.00,215.00 112.00,215.00
             112.00,215.00 107.00,215.00 107.00,215.00
             107.00,215.00 107.00,213.00 107.00,213.00
             107.00,213.00 112.00,213.00 112.00,213.00 Z
           M 225.00,214.00
           C 225.00,214.00 225.00,216.00 225.00,216.00
             225.00,216.00 140.00,216.00 140.00,216.00
             140.00,216.00 140.00,214.00 140.00,214.00
             140.00,214.00 225.00,214.00 225.00,214.00 Z
           M 99.00,242.00
           C 99.00,242.00 99.00,260.00 99.00,260.00
             99.00,260.00 120.00,260.00 120.00,260.00
             120.00,260.00 120.00,242.00 120.00,242.00
             120.00,242.00 99.00,242.00 99.00,242.00 Z
           M 133.60,243.02
           C 131.83,245.50 132.06,245.95 132.00,249.00
             131.96,251.23 131.68,256.70 133.02,258.40
             134.37,260.10 137.05,259.96 139.00,260.00
             139.00,260.00 156.00,260.00 156.00,260.00
             156.00,260.00 254.00,260.00 254.00,260.00
             260.74,259.99 262.86,260.49 263.00,253.00
             263.04,250.77 263.32,245.30 261.98,243.60
             260.63,241.90 257.95,242.04 256.00,242.00
             256.00,242.00 235.00,242.00 235.00,242.00
             235.00,242.00 165.00,242.00 165.00,242.00
             158.51,242.00 138.40,240.98 133.60,243.02 Z
           M 112.00,250.00
           C 112.00,250.00 112.00,252.00 112.00,252.00
             112.00,252.00 107.00,252.00 107.00,252.00
             107.00,252.00 107.00,250.00 107.00,250.00
             107.00,250.00 112.00,250.00 112.00,250.00 Z
           M 255.00,250.00
           C 255.00,250.00 255.00,252.00 255.00,252.00
             255.00,252.00 140.00,252.00 140.00,252.00
             140.00,252.00 140.00,250.00 140.00,250.00
             140.00,250.00 255.00,250.00 255.00,250.00 Z
           M 99.00,276.00
           C 99.00,276.00 99.00,294.00 99.00,294.00
             99.00,294.00 120.00,294.00 120.00,294.00
             120.00,294.00 120.00,276.00 120.00,276.00
             120.00,276.00 99.00,276.00 99.00,276.00 Z
           M 133.60,277.02
           C 131.44,280.03 131.98,282.38 132.00,286.00
             132.01,287.82 131.85,290.93 133.02,292.40
             134.37,294.10 137.05,293.96 139.00,294.00
             139.00,294.00 154.00,294.00 154.00,294.00
             154.00,294.00 224.00,294.00 224.00,294.00
             231.72,293.98 232.95,294.13 233.00,286.00
             233.01,283.87 233.29,279.26 231.98,277.60
             229.96,275.05 215.68,276.00 212.00,276.00
             212.00,276.00 158.00,276.00 158.00,276.00
             152.35,276.00 138.08,275.11 133.60,277.02 Z
           M 112.00,284.00
           C 112.00,284.00 112.00,286.00 112.00,286.00
             112.00,286.00 107.00,286.00 107.00,286.00
             107.00,286.00 107.00,284.00 107.00,284.00
             107.00,284.00 112.00,284.00 112.00,284.00 Z
           M 225.00,284.00
           C 225.00,284.00 225.00,286.00 225.00,286.00
             225.00,286.00 140.00,286.00 140.00,286.00
             140.00,286.00 140.00,284.00 140.00,284.00
             140.00,284.00 225.00,284.00 225.00,284.00 Z" />
</svg>
