<?xml version="1.0" encoding="UTF-8" standalone="no"?>
<!DOCTYPE svg PUBLIC "-//W3C//DTD SVG 20010904//EN"
              "http://www.w3.org/TR/2001/REC-SVG-20010904/DTD/svg10.dtd">

<svg xmlns="http://www.w3.org/2000/svg"
     width="1.22in" height="1.22in"
     viewBox="0 0 366 366">
  <path id="Auswahl"
        fill="black" stroke="black" stroke-width="1"
        d="M 166.00,40.21
           C 149.07,42.84 138.09,44.55 122.00,51.43
             91.37,64.52 66.14,89.79 52.31,120.00
             18.35,194.15 56.27,282.31 134.00,308.00
             145.20,311.70 160.22,314.86 172.00,315.00
             195.70,315.27 217.62,311.44 239.00,300.75
             311.61,264.45 337.32,172.47 293.95,104.00
             286.39,92.07 277.86,81.84 267.00,72.75
             255.35,63.01 242.24,54.80 228.00,49.42
             213.64,44.00 196.38,40.02 181.00,40.21
             181.00,40.21 166.00,40.21 166.00,40.21 Z
           M 173.00,50.00
           C 173.00,50.00 173.00,133.00 173.00,133.00
             173.00,133.00 183.00,133.00 183.00,133.00
             183.00,133.00 183.00,50.00 183.00,50.00
             201.19,52.40 217.24,54.89 234.00,63.27
             276.52,84.53 302.84,126.87 305.00,174.00
             305.00,174.00 222.00,174.00 222.00,174.00
             222.00,174.00 222.00,183.00 222.00,183.00
             222.00,183.00 305.00,183.00 305.00,183.00
             302.62,201.06 300.49,215.09 292.69,232.00
             281.15,257.02 256.22,281.96 231.00,293.14
             213.96,300.69 201.07,302.62 183.00,305.00
             183.00,305.00 183.00,223.00 183.00,223.00
             183.00,223.00 173.00,223.00 173.00,223.00
             173.00,223.00 173.00,305.00 173.00,305.00
             155.93,303.62 138.63,299.90 123.00,292.69
             98.19,281.24 74.60,257.60 62.78,233.00
             54.68,216.13 52.39,201.15 50.00,183.00
             50.00,183.00 132.00,183.00 132.00,183.00
             132.00,183.00 132.00,174.00 132.00,174.00
             132.00,174.00 50.00,174.00 50.00,174.00
             52.16,126.87 78.48,84.53 121.00,63.27
             136.49,55.52 155.82,51.39 173.00,50.00 Z" />
</svg>
