<?xml version="1.0" encoding="UTF-8" standalone="no"?>
<!DOCTYPE svg PUBLIC "-//W3C//DTD SVG 20010904//EN"
              "http://www.w3.org/TR/2001/REC-SVG-20010904/DTD/svg10.dtd">

<svg xmlns="http://www.w3.org/2000/svg"
     width="1.22in" height="1.22in"
     viewBox="0 0 366 366">
  <path id="Auswahl"
        fill="black" stroke="black" stroke-width="1"
        d="M 56.00,104.00
           C 56.00,104.00 56.00,250.00 56.00,250.00
             56.00,250.00 83.00,250.00 83.00,250.00
             83.00,250.00 83.00,162.00 83.00,162.00
             83.00,162.00 82.04,150.00 82.04,150.00
             82.04,150.00 82.04,138.00 82.04,138.00
             82.04,138.00 89.05,159.00 89.05,159.00
             89.05,159.00 111.95,222.00 111.95,222.00
             111.95,222.00 118.95,241.00 118.95,241.00
             118.95,241.00 122.70,249.01 122.70,249.01
             122.70,249.01 134.00,250.00 134.00,250.00
             134.00,250.00 139.30,249.01 139.30,249.01
             139.30,249.01 142.69,242.00 142.69,242.00
             142.69,242.00 148.95,225.00 148.95,225.00
             148.95,225.00 170.33,166.00 170.33,166.00
             170.33,166.00 179.00,138.00 179.00,138.00
             181.32,146.17 179.04,152.85 179.00,161.00
             179.00,161.00 179.00,173.00 179.00,173.00
             179.00,173.00 179.00,250.00 179.00,250.00
             179.00,250.00 206.00,250.00 206.00,250.00
             206.00,250.00 206.00,104.00 206.00,104.00
             206.00,104.00 176.00,104.00 176.00,104.00
             173.96,104.00 170.37,103.74 168.70,104.99
             166.99,106.27 166.01,110.00 165.33,112.00
             165.33,112.00 159.58,128.00 159.58,128.00
             159.58,128.00 142.58,175.00 142.58,175.00
             139.55,183.10 132.72,202.07 132.00,210.00
             132.00,210.00 126.66,197.00 126.66,197.00
             126.66,197.00 119.67,176.00 119.67,176.00
             119.67,176.00 94.00,104.00 94.00,104.00
             94.00,104.00 56.00,104.00 56.00,104.00 Z
           M 269.00,104.00
           C 269.00,104.00 269.00,209.00 269.00,209.00
             268.85,221.77 263.41,229.42 250.00,229.96
             241.84,230.29 235.68,227.73 228.00,226.00
             228.00,226.00 228.00,241.00 228.00,241.00
             228.00,243.12 227.77,246.73 229.02,248.49
             230.44,250.48 233.75,250.95 236.00,251.39
             243.36,252.82 245.55,253.03 253.00,253.00
             268.80,252.93 285.77,247.49 292.65,232.00
             295.26,226.14 295.99,219.35 296.00,213.00
             296.00,213.00 296.00,104.00 296.00,104.00
             296.00,104.00 269.00,104.00 269.00,104.00 Z" />
</svg>
