<?xml version="1.0" encoding="UTF-8" standalone="no"?>
<!DOCTYPE svg PUBLIC "-//W3C//DTD SVG 20010904//EN"
              "http://www.w3.org/TR/2001/REC-SVG-20010904/DTD/svg10.dtd">

<svg xmlns="http://www.w3.org/2000/svg"
     width="1.22in" height="1.22in"
     viewBox="0 0 366 366">
  <path id="Auswahl"
        fill="black" stroke="black" stroke-width="1"
        d="M 129.00,56.56
           C 122.19,58.94 118.98,63.03 114.00,68.00
             114.00,68.00 96.00,86.00 96.00,86.00
             96.00,86.00 71.00,111.00 71.00,111.00
             61.47,120.53 56.02,122.96 56.00,137.00
             56.00,137.00 56.00,292.00 56.00,292.00
             56.01,295.50 55.81,298.77 57.45,302.00
             58.88,304.80 61.05,306.97 64.00,308.11
             67.05,309.29 72.62,309.00 76.00,309.00
             76.00,309.00 97.00,309.00 97.00,309.00
             97.00,309.00 229.00,309.00 229.00,309.00
             242.36,308.98 243.76,304.24 253.00,295.00
             253.00,295.00 274.00,274.00 274.00,274.00
             274.00,274.00 296.00,252.00 296.00,252.00
             304.38,243.62 308.98,242.14 309.00,230.00
             309.00,230.00 309.00,72.00 309.00,72.00
             309.00,69.05 309.21,65.70 307.83,63.02
             304.96,57.45 299.73,56.08 294.00,56.00
             294.00,56.00 268.00,56.00 268.00,56.00
             268.00,56.00 176.00,56.00 176.00,56.00
             176.00,56.00 129.00,56.56 129.00,56.56 Z
           M 265.00,81.00
           C 265.00,81.00 254.00,94.00 254.00,94.00
             254.00,94.00 238.00,110.00 238.00,110.00
             238.00,110.00 229.00,117.98 229.00,117.98
             229.00,117.98 221.00,119.00 221.00,119.00
             221.00,119.00 100.00,119.00 100.00,119.00
             104.56,112.63 118.70,99.30 125.00,93.00
             132.55,85.45 134.03,81.02 145.00,81.00
             145.00,81.00 265.00,81.00 265.00,81.00 Z
           M 284.00,100.00
           C 284.00,100.00 284.00,221.00 284.00,221.00
             283.98,231.97 279.55,233.45 272.00,241.00
             265.70,247.30 252.37,261.44 246.00,266.00
             246.00,266.00 246.00,145.00 246.00,145.00
             246.02,134.03 250.45,132.55 258.00,125.00
             264.30,118.70 277.63,104.56 284.00,100.00 Z
           M 221.00,145.00
           C 221.00,145.00 221.00,284.00 221.00,284.00
             221.00,284.00 81.00,284.00 81.00,284.00
             81.00,284.00 81.00,145.00 81.00,145.00
             81.00,145.00 221.00,145.00 221.00,145.00 Z" />
</svg>
