<?xml version="1.0" encoding="UTF-8" standalone="no"?>
<!DOCTYPE svg PUBLIC "-//W3C//DTD SVG 20010904//EN"
              "http://www.w3.org/TR/2001/REC-SVG-20010904/DTD/svg10.dtd">

<svg xmlns="http://www.w3.org/2000/svg"
     width="1.22in" height="1.22in"
     viewBox="0 0 366 366">
  <path id="Auswahl"
        fill="black" stroke="black" stroke-width="1"
        d="M 172.00,141.00
           C 172.00,141.00 87.00,141.00 87.00,141.00
             77.56,141.02 73.15,142.46 73.00,153.00
             73.00,153.00 73.00,210.00 73.00,210.00
             73.00,212.39 72.87,215.78 73.74,217.98
             77.02,226.31 90.58,224.00 98.00,224.00
             98.00,224.00 172.00,224.00 172.00,224.00
             172.00,224.00 172.00,242.00 172.00,242.00
             172.11,250.04 175.33,254.63 184.00,253.89
             190.18,253.37 201.37,245.26 207.00,241.81
             207.00,241.81 257.00,211.40 257.00,211.40
             257.00,211.40 283.00,195.58 283.00,195.58
             287.75,192.61 292.29,190.11 292.89,184.00
             293.72,175.42 288.41,172.86 282.00,169.00
             282.00,169.00 262.00,156.80 262.00,156.80
             262.00,156.80 208.00,123.80 208.00,123.80
             202.27,120.36 190.02,111.62 184.00,111.11
             171.63,110.05 172.00,119.10 172.00,128.00
             172.00,128.00 172.00,141.00 172.00,141.00 Z" />
</svg>
