<?xml version="1.0" encoding="UTF-8" standalone="no"?>
<!DOCTYPE svg PUBLIC "-//W3C//DTD SVG 20010904//EN"
              "http://www.w3.org/TR/2001/REC-SVG-20010904/DTD/svg10.dtd">

<svg xmlns="http://www.w3.org/2000/svg"
     width="4.06667in" height="4.06667in"
     viewBox="0 0 366 366">
  <path id="Auswahl"
        fill="black" stroke="black" stroke-width="1"
        d="M 88.00,136.00
           C 88.00,136.00 88.00,166.00 88.00,166.00
             88.00,166.00 107.00,166.00 107.00,166.00
             107.00,166.00 107.00,187.00 107.00,187.00
             107.00,187.00 88.00,187.00 88.00,187.00
             88.00,187.00 88.00,217.00 88.00,217.00
             88.00,217.00 112.00,217.00 112.00,217.00
             112.98,223.35 115.81,230.30 118.78,236.00
             133.92,264.95 166.68,277.63 198.00,278.00
             210.72,278.15 223.54,277.70 236.00,274.88
             250.23,271.66 249.98,271.76 250.00,263.00
             250.00,263.00 250.00,234.00 250.00,234.00
             250.00,234.00 234.00,238.00 234.00,238.00
             213.92,242.09 186.06,243.78 169.01,230.32
             164.24,226.55 161.34,221.97 158.00,217.00
             158.00,217.00 207.00,217.00 207.00,217.00
             207.00,217.00 207.00,187.00 207.00,187.00
             207.00,187.00 152.00,187.00 152.00,187.00
             150.63,176.60 150.63,176.40 152.00,166.00
             152.00,166.00 221.00,166.00 221.00,166.00
             221.00,166.00 221.00,136.00 221.00,136.00
             221.00,136.00 159.00,136.00 159.00,136.00
             161.43,130.56 162.87,128.36 167.04,124.00
             185.50,104.68 210.87,106.02 235.00,111.42
             235.00,111.42 248.00,115.00 248.00,115.00
             248.00,115.00 248.00,86.00 248.00,86.00
             248.00,83.92 248.25,80.37 247.01,78.65
             245.33,76.34 239.74,75.28 237.00,74.65
             228.81,72.77 216.34,71.01 208.00,71.00
             181.76,70.96 156.88,75.57 137.00,94.09
             129.13,101.42 124.05,108.45 119.25,118.00
             117.56,121.34 113.00,133.55 110.73,134.98
             108.76,136.21 105.28,136.00 103.00,136.00
             103.00,136.00 88.00,136.00 88.00,136.00 Z" />
</svg>
