<?xml version="1.0" encoding="UTF-8" standalone="no"?>
<!DOCTYPE svg PUBLIC "-//W3C//DTD SVG 20010904//EN"
              "http://www.w3.org/TR/2001/REC-SVG-20010904/DTD/svg10.dtd">

<svg xmlns="http://www.w3.org/2000/svg"
     width="1.22in" height="1.22in"
     viewBox="0 0 366 366">
  <path id="Auswahl"
        fill="black" stroke="black" stroke-width="1"
        d="M 84.00,56.00
           C 84.00,101.72 90.44,148.77 102.12,193.00
             109.51,221.01 121.98,255.54 140.46,278.00
             140.46,278.00 153.00,291.00 153.00,291.00
             153.00,291.00 80.00,291.00 80.00,291.00
             80.00,291.00 80.00,301.00 80.00,301.00
             80.00,301.00 173.00,301.00 173.00,301.00
             168.62,309.46 169.00,310.82 169.00,320.00
             175.20,318.94 176.72,311.45 178.00,306.00
             178.00,306.00 180.00,306.00 180.00,306.00
             181.28,311.45 182.80,318.94 189.00,320.00
             189.00,310.82 189.38,309.46 185.00,301.00
             185.00,301.00 276.00,301.00 276.00,301.00
             276.00,301.00 276.00,291.00 276.00,291.00
             276.00,291.00 207.00,291.00 207.00,291.00
             207.00,291.00 219.54,278.00 219.54,278.00
             238.02,255.54 250.49,221.01 257.88,193.00
             269.63,148.50 276.00,102.00 276.00,56.00
             276.00,56.00 267.00,56.00 267.00,56.00
             265.71,63.19 266.03,63.94 266.00,71.00
             266.00,71.00 265.09,82.00 265.09,82.00
             265.09,82.00 262.84,109.00 262.84,109.00
             258.71,147.52 249.00,196.50 233.72,232.00
             224.08,254.40 209.50,281.76 185.00,290.00
             189.18,279.55 189.00,281.17 189.00,270.00
             182.80,271.06 181.28,278.55 180.00,284.00
             180.00,284.00 178.00,284.00 178.00,284.00
             176.72,278.55 175.20,271.06 169.00,270.00
             169.00,279.18 168.62,280.54 173.00,289.00
             164.26,286.81 156.44,279.76 150.75,273.00
             140.48,260.78 133.43,248.62 127.15,234.00
             111.04,196.48 101.51,149.59 97.16,109.00
             97.16,109.00 94.91,82.00 94.91,82.00
             94.91,82.00 94.00,70.00 94.00,70.00
             93.99,63.40 94.20,62.67 93.00,56.00
             93.00,56.00 84.00,56.00 84.00,56.00 Z" />
</svg>
