<?xml version="1.0" encoding="UTF-8" standalone="no"?>
<!DOCTYPE svg PUBLIC "-//W3C//DTD SVG 20010904//EN"
              "http://www.w3.org/TR/2001/REC-SVG-20010904/DTD/svg10.dtd">

<svg xmlns="http://www.w3.org/2000/svg"
     width="1.22in" height="1.22in"
     viewBox="0 0 366 366">
  <path id="Auswahl"
        fill="black" stroke="black" stroke-width="1"
        d="M 111.00,261.00
           C 111.18,281.16 123.77,298.00 145.00,298.00
             150.51,298.00 154.05,297.68 159.00,294.95
             168.57,289.66 172.41,280.60 171.96,270.00
             171.96,270.00 171.25,260.00 171.25,260.00
             170.96,257.70 170.90,254.17 171.25,252.00
             173.87,243.35 189.32,229.68 196.00,223.00
             196.00,223.00 244.00,175.00 244.00,175.00
             252.63,166.37 259.76,157.53 273.00,158.04
             273.00,158.04 283.00,158.99 283.00,158.99
             308.73,159.57 318.29,133.83 305.45,114.00
             300.55,106.42 291.92,100.83 283.00,99.32
             283.00,99.32 273.00,98.00 273.00,98.00
             278.39,75.37 246.48,49.56 223.02,66.79
             209.62,76.62 214.22,89.57 214.00,103.00
             213.80,114.80 201.73,124.27 194.00,132.00
             194.00,132.00 154.00,172.00 154.00,172.00
             154.00,172.00 134.00,191.95 134.00,191.95
             129.48,196.16 122.28,201.19 116.00,201.82
             110.20,202.41 107.07,200.35 102.00,200.10
             92.48,199.64 82.29,204.68 77.53,213.00
             69.01,227.89 76.16,247.04 90.00,255.87
             96.94,260.29 103.06,260.99 111.00,261.00 Z" />
</svg>
