<?xml version="1.0" encoding="UTF-8" standalone="no"?>
<!DOCTYPE svg PUBLIC "-//W3C//DTD SVG 20010904//EN"
              "http://www.w3.org/TR/2001/REC-SVG-20010904/DTD/svg10.dtd">

<svg xmlns="http://www.w3.org/2000/svg"
     width="4.06667in" height="4.06667in"
     viewBox="0 0 366 366">
  <path id="Auswahl #1"
        fill="black" stroke="black" stroke-width="1"
        d="M 208.00,112.00
           C 214.91,105.09 222.36,97.94 224.48,88.00
             227.76,72.66 220.89,59.18 204.00,59.00
             201.38,58.98 198.53,58.92 196.00,59.63
             190.76,61.12 183.73,65.78 181.74,71.00
             179.65,76.47 181.37,85.14 189.00,83.53
             193.96,82.48 197.24,76.35 202.00,75.72
             203.81,75.48 205.38,76.03 206.67,77.33
             210.88,81.55 205.56,87.64 202.70,91.00
             197.15,97.51 184.17,108.60 180.65,115.00
             177.05,121.56 179.87,126.38 187.00,127.84
             189.09,128.05 191.85,128.00 194.00,127.84
             200.06,128.01 217.28,128.90 221.89,126.43
             227.21,123.58 227.08,116.37 221.89,113.45
             218.43,111.50 212.02,112.00 208.00,112.00 Z
           M 153.00,82.00
           C 153.00,82.00 153.00,112.00 153.00,112.00
             141.21,112.69 141.52,121.89 145.31,125.57
             148.64,128.80 157.51,128.99 162.00,129.00
             167.76,129.01 177.51,128.77 175.67,120.00
             174.53,114.57 169.24,114.34 168.80,109.90
             168.80,109.90 168.80,79.00 168.80,79.00
             168.97,72.70 168.83,63.57 161.00,62.23
             155.36,61.27 146.86,65.46 143.74,70.09
             141.82,72.94 141.02,78.78 144.31,80.98
             146.27,82.28 150.64,82.00 153.00,82.00 Z
           M 70.02,140.57
           C 67.63,141.56 66.60,141.81 65.09,144.13
             61.75,149.24 63.00,169.07 63.00,176.00
             63.00,176.00 63.00,284.00 63.00,284.00
             63.01,288.43 62.79,294.28 66.30,297.57
             69.24,300.33 73.27,299.99 77.00,300.00
             77.00,300.00 116.00,300.00 116.00,300.00
             116.00,300.00 291.00,300.00 291.00,300.00
             294.62,299.99 298.78,300.36 301.57,297.57
             303.96,295.18 303.95,292.14 304.00,289.00
             304.00,289.00 304.00,265.00 304.00,265.00
             304.00,265.00 304.00,153.00 304.00,153.00
             303.99,148.97 304.39,144.47 300.77,141.74
             297.58,139.32 290.03,140.00 286.00,140.00
             286.00,140.00 251.00,140.00 251.00,140.00
             251.00,140.00 130.00,140.00 130.00,140.00
             130.00,140.00 92.00,140.00 92.00,140.00
             85.89,140.00 75.61,139.55 70.02,140.57 Z
           M 96.00,152.00
           C 96.00,152.00 96.00,170.00 96.00,170.00
             96.00,170.00 74.00,170.00 74.00,170.00
             74.00,170.00 74.00,152.00 74.00,152.00
             74.00,152.00 96.00,152.00 96.00,152.00 Z
           M 129.00,152.00
           C 129.00,152.00 129.00,170.00 129.00,170.00
             129.00,170.00 107.00,170.00 107.00,170.00
             107.00,170.00 107.00,152.00 107.00,152.00
             107.00,152.00 129.00,152.00 129.00,152.00 Z
           M 162.00,152.00
           C 162.00,152.00 162.00,170.00 162.00,170.00
             162.00,170.00 141.00,170.00 141.00,170.00
             141.00,170.00 141.00,152.00 141.00,152.00
             141.00,152.00 162.00,152.00 162.00,152.00 Z
           M 195.00,152.00
           C 195.00,152.00 195.00,170.00 195.00,170.00
             195.00,170.00 173.00,170.00 173.00,170.00
             173.00,170.00 173.00,152.00 173.00,152.00
             173.00,152.00 195.00,152.00 195.00,152.00 Z
           M 228.00,152.00
           C 228.00,152.00 228.00,170.00 228.00,170.00
             228.00,170.00 206.00,170.00 206.00,170.00
             206.00,170.00 206.00,152.00 206.00,152.00
             206.00,152.00 228.00,152.00 228.00,152.00 Z
           M 261.00,152.00
           C 261.00,152.00 261.00,170.00 261.00,170.00
             261.00,170.00 239.00,170.00 239.00,170.00
             239.00,170.00 239.00,152.00 239.00,152.00
             239.00,152.00 261.00,152.00 261.00,152.00 Z
           M 294.00,152.00
           C 294.00,152.00 294.00,170.00 294.00,170.00
             294.00,170.00 272.00,170.00 272.00,170.00
             272.00,170.00 272.00,152.00 272.00,152.00
             272.00,152.00 294.00,152.00 294.00,152.00 Z
           M 96.00,182.00
           C 96.00,182.00 96.00,200.00 96.00,200.00
             96.00,200.00 74.00,200.00 74.00,200.00
             74.00,200.00 74.00,182.00 74.00,182.00
             74.00,182.00 96.00,182.00 96.00,182.00 Z
           M 129.00,182.00
           C 129.00,182.00 129.00,200.00 129.00,200.00
             129.00,200.00 107.00,200.00 107.00,200.00
             107.00,200.00 107.00,182.00 107.00,182.00
             107.00,182.00 129.00,182.00 129.00,182.00 Z
           M 162.00,182.00
           C 162.00,182.00 162.00,200.00 162.00,200.00
             162.00,200.00 141.00,200.00 141.00,200.00
             141.00,200.00 141.00,182.00 141.00,182.00
             141.00,182.00 162.00,182.00 162.00,182.00 Z
           M 195.00,182.00
           C 195.00,182.00 195.00,200.00 195.00,200.00
             195.00,200.00 173.00,200.00 173.00,200.00
             173.00,200.00 173.00,182.00 173.00,182.00
             173.00,182.00 195.00,182.00 195.00,182.00 Z
           M 228.00,182.00
           C 228.00,182.00 228.00,200.00 228.00,200.00
             228.00,200.00 206.00,200.00 206.00,200.00
             206.00,200.00 206.00,182.00 206.00,182.00
             206.00,182.00 228.00,182.00 228.00,182.00 Z
           M 261.00,182.00
           C 261.00,182.00 261.00,200.00 261.00,200.00
             261.00,200.00 239.00,200.00 239.00,200.00
             239.00,200.00 239.00,182.00 239.00,182.00
             239.00,182.00 261.00,182.00 261.00,182.00 Z
           M 294.00,182.00
           C 294.00,182.00 294.00,200.00 294.00,200.00
             294.00,200.00 272.00,200.00 272.00,200.00
             272.00,200.00 272.00,182.00 272.00,182.00
             272.00,182.00 294.00,182.00 294.00,182.00 Z
           M 96.00,212.00
           C 96.00,212.00 96.00,231.00 96.00,231.00
             96.00,231.00 74.00,231.00 74.00,231.00
             74.00,231.00 74.00,212.00 74.00,212.00
             74.00,212.00 96.00,212.00 96.00,212.00 Z
           M 129.00,212.00
           C 129.00,212.00 129.00,231.00 129.00,231.00
             129.00,231.00 107.00,231.00 107.00,231.00
             107.00,231.00 107.00,212.00 107.00,212.00
             107.00,212.00 129.00,212.00 129.00,212.00 Z
           M 261.00,212.00
           C 261.00,212.00 261.00,231.00 261.00,231.00
             261.00,231.00 239.00,231.00 239.00,231.00
             239.00,231.00 239.00,212.00 239.00,212.00
             239.00,212.00 261.00,212.00 261.00,212.00 Z
           M 294.00,212.00
           C 294.00,212.00 294.00,231.00 294.00,231.00
             294.00,231.00 272.00,231.00 272.00,231.00
             272.00,231.00 272.00,212.00 272.00,212.00
             272.00,212.00 294.00,212.00 294.00,212.00 Z
           M 162.00,213.00
           C 162.00,213.00 162.00,231.00 162.00,231.00
             162.00,231.00 141.00,231.00 141.00,231.00
             141.00,231.00 141.00,213.00 141.00,213.00
             141.00,213.00 162.00,213.00 162.00,213.00 Z
           M 195.00,213.00
           C 195.00,213.00 195.00,231.00 195.00,231.00
             195.00,231.00 173.00,231.00 173.00,231.00
             173.00,231.00 173.00,213.00 173.00,213.00
             173.00,213.00 195.00,213.00 195.00,213.00 Z
           M 228.00,213.00
           C 228.00,213.00 228.00,231.00 228.00,231.00
             228.00,231.00 206.00,231.00 206.00,231.00
             206.00,231.00 206.00,213.00 206.00,213.00
             206.00,213.00 228.00,213.00 228.00,213.00 Z
           M 96.00,240.00
           C 96.00,240.00 96.00,258.00 96.00,258.00
             96.00,258.00 74.00,258.00 74.00,258.00
             74.00,258.00 74.00,240.00 74.00,240.00
             74.00,240.00 96.00,240.00 96.00,240.00 Z
           M 129.00,240.00
           C 129.00,240.00 129.00,258.00 129.00,258.00
             129.00,258.00 107.00,258.00 107.00,258.00
             107.00,258.00 107.00,240.00 107.00,240.00
             107.00,240.00 129.00,240.00 129.00,240.00 Z
           M 162.00,240.00
           C 162.00,240.00 162.00,258.00 162.00,258.00
             162.00,258.00 141.00,258.00 141.00,258.00
             141.00,258.00 141.00,240.00 141.00,240.00
             141.00,240.00 162.00,240.00 162.00,240.00 Z
           M 195.00,240.00
           C 195.00,240.00 195.00,258.00 195.00,258.00
             195.00,258.00 173.00,258.00 173.00,258.00
             173.00,258.00 173.00,240.00 173.00,240.00
             173.00,240.00 195.00,240.00 195.00,240.00 Z
           M 228.00,240.00
           C 228.00,240.00 228.00,258.00 228.00,258.00
             228.00,258.00 206.00,258.00 206.00,258.00
             206.00,258.00 206.00,240.00 206.00,240.00
             206.00,240.00 228.00,240.00 228.00,240.00 Z
           M 261.00,240.00
           C 261.00,240.00 261.00,258.00 261.00,258.00
             261.00,258.00 239.00,258.00 239.00,258.00
             239.00,258.00 239.00,240.00 239.00,240.00
             239.00,240.00 261.00,240.00 261.00,240.00 Z
           M 294.00,240.00
           C 294.00,240.00 294.00,258.00 294.00,258.00
             294.00,258.00 272.00,258.00 272.00,258.00
             272.00,258.00 272.00,240.00 272.00,240.00
             272.00,240.00 294.00,240.00 294.00,240.00 Z
           M 96.00,272.00
           C 96.00,272.00 96.00,288.00 96.00,288.00
             96.00,288.00 74.00,288.00 74.00,288.00
             74.00,288.00 74.00,272.00 74.00,272.00
             74.00,272.00 96.00,272.00 96.00,272.00 Z
           M 129.00,272.00
           C 129.00,272.00 129.00,288.00 129.00,288.00
             129.00,288.00 107.00,288.00 107.00,288.00
             107.00,288.00 107.00,272.00 107.00,272.00
             107.00,272.00 129.00,272.00 129.00,272.00 Z
           M 162.00,272.00
           C 162.00,272.00 162.00,288.00 162.00,288.00
             162.00,288.00 141.00,288.00 141.00,288.00
             141.00,288.00 141.00,272.00 141.00,272.00
             141.00,272.00 162.00,272.00 162.00,272.00 Z
           M 195.00,272.00
           C 195.00,272.00 195.00,288.00 195.00,288.00
             195.00,288.00 173.00,288.00 173.00,288.00
             173.00,288.00 173.00,272.00 173.00,272.00
             173.00,272.00 195.00,272.00 195.00,272.00 Z
           M 228.00,272.00
           C 228.00,272.00 228.00,288.00 228.00,288.00
             228.00,288.00 206.00,288.00 206.00,288.00
             206.00,288.00 206.00,272.00 206.00,272.00
             206.00,272.00 228.00,272.00 228.00,272.00 Z
           M 261.00,272.00
           C 261.00,272.00 261.00,288.00 261.00,288.00
             261.00,288.00 239.00,288.00 239.00,288.00
             239.00,288.00 239.00,272.00 239.00,272.00
             239.00,272.00 261.00,272.00 261.00,272.00 Z
           M 294.00,272.00
           C 294.00,272.00 294.00,288.00 294.00,288.00
             294.00,288.00 272.00,288.00 272.00,288.00
             272.00,288.00 272.00,272.00 272.00,272.00
             272.00,272.00 294.00,272.00 294.00,272.00 Z" />
</svg>
