<?xml version="1.0" encoding="UTF-8" standalone="no"?>
<!DOCTYPE svg PUBLIC "-//W3C//DTD SVG 20010904//EN"
              "http://www.w3.org/TR/2001/REC-SVG-20010904/DTD/svg10.dtd">

<svg xmlns="http://www.w3.org/2000/svg"
     width="4.06667in" height="4.06667in"
     viewBox="0 0 366 366">
  <path id="Auswahl"
        fill="black" stroke="black" stroke-width="1"
        d="M 43.00,96.00
           C 43.00,96.00 43.00,98.00 43.00,98.00
             43.00,98.00 70.00,101.00 70.00,101.00
             70.00,101.00 35.80,161.00 35.80,161.00
             32.21,167.03 23.65,178.09 27.17,184.99
             30.57,191.63 41.20,194.92 48.00,196.75
             66.37,201.22 89.60,201.36 108.00,196.75
             115.62,195.01 129.39,190.99 131.01,182.00
             131.91,177.02 122.63,163.84 119.85,159.00
             119.85,159.00 87.00,101.00 87.00,101.00
             87.00,101.00 118.00,102.00 118.00,102.00
             118.00,102.00 135.00,103.00 135.00,103.00
             135.00,103.00 180.00,103.00 180.00,103.00
             172.67,120.29 171.18,135.55 169.91,154.00
             169.91,154.00 169.00,165.00 169.00,165.00
             168.92,182.13 169.16,198.99 171.28,216.00
             171.28,216.00 176.00,241.04 176.00,241.04
             176.00,241.04 159.00,241.04 159.00,241.04
             159.00,241.04 147.00,242.00 147.00,242.00
             133.08,242.02 115.83,243.57 102.00,245.58
             96.81,246.33 88.77,247.43 84.02,249.40
             81.52,250.43 78.39,252.45 81.37,255.16
             83.23,256.86 89.41,258.24 92.00,258.79
             92.00,258.79 118.00,262.17 118.00,262.17
             148.24,265.19 178.59,265.05 209.00,265.00
             209.00,265.00 224.00,264.00 224.00,264.00
             241.38,263.80 258.80,262.38 276.00,259.73
             279.42,259.20 291.48,257.21 292.66,253.78
             293.48,251.42 290.69,250.10 288.98,249.40
             285.31,247.88 278.05,246.56 274.00,246.00
             258.16,243.81 241.99,242.02 226.00,242.00
             226.00,242.00 209.00,241.00 209.00,241.00
             209.00,241.00 196.00,241.00 196.00,241.00
             196.00,241.00 200.72,216.00 200.72,216.00
             202.87,198.70 203.20,181.43 203.00,164.00
             203.00,164.00 202.09,154.00 202.09,154.00
             200.82,135.55 199.33,120.29 192.00,103.00
             192.00,103.00 243.00,103.00 243.00,103.00
             243.00,103.00 259.00,102.00 259.00,102.00
             259.00,102.00 281.00,102.00 281.00,102.00
             281.00,102.00 246.99,161.00 246.99,161.00
             243.73,166.54 234.84,177.63 237.96,183.96
             241.40,190.96 251.85,194.65 259.00,196.57
             278.72,201.03 298.22,201.02 318.00,196.57
             325.76,195.13 339.67,190.89 341.57,182.00
             342.76,176.39 334.02,164.13 331.01,159.00
             331.01,159.00 298.00,101.00 298.00,101.00
             298.00,101.00 325.00,98.00 325.00,98.00
             325.00,98.00 325.00,96.00 325.00,96.00
             325.00,96.00 286.00,93.00 286.00,93.00
             286.00,93.00 270.00,92.00 270.00,92.00
             270.00,92.00 250.00,92.00 250.00,92.00
             250.00,92.00 233.00,91.00 233.00,91.00
             233.00,91.00 184.00,91.00 184.00,91.00
             184.00,91.00 134.00,91.00 134.00,91.00
             134.00,91.00 118.00,92.00 118.00,92.00
             118.00,92.00 97.00,92.00 97.00,92.00
             97.00,92.00 82.00,93.00 82.00,93.00
             82.00,93.00 43.00,96.00 43.00,96.00 Z
           M 79.00,110.00
           C 79.00,110.00 100.28,147.00 100.28,147.00
             100.28,147.00 110.00,165.00 110.00,165.00
             110.00,165.00 83.00,162.00 83.00,162.00
             64.67,161.97 63.67,162.45 46.00,166.00
             46.00,166.00 64.72,133.00 64.72,133.00
             64.72,133.00 79.00,110.00 79.00,110.00 Z
           M 290.00,110.00
           C 290.00,110.00 322.00,166.00 322.00,166.00
             322.00,166.00 287.00,162.00 287.00,162.00
             287.00,162.00 257.00,166.00 257.00,166.00
             257.00,166.00 274.72,135.00 274.72,135.00
             274.72,135.00 290.00,110.00 290.00,110.00 Z
           M 111.00,165.00
           C 111.00,165.00 111.00,166.00 111.00,166.00
             111.00,166.00 110.00,165.00 110.00,165.00
             110.00,165.00 111.00,165.00 111.00,165.00 Z" />
</svg>
