<?xml version="1.0" encoding="UTF-8" standalone="no"?>
<!DOCTYPE svg PUBLIC "-//W3C//DTD SVG 20010904//EN"
              "http://www.w3.org/TR/2001/REC-SVG-20010904/DTD/svg10.dtd">

<svg xmlns="http://www.w3.org/2000/svg"
     width="1.22in" height="1.22in"
     viewBox="0 0 366 366">
  <path id="Auswahl"
        fill="black" stroke="black" stroke-width="1"
        d="M 99.00,106.00
           C 93.66,109.11 93.94,112.78 91.88,118.00
             91.88,118.00 87.07,127.00 87.07,127.00
             87.07,127.00 83.69,138.00 83.69,138.00
             83.69,138.00 78.77,152.00 78.77,152.00
             73.96,164.89 68.40,177.53 65.24,191.00
             65.24,191.00 62.86,206.00 62.86,206.00
             62.86,206.00 61.18,214.00 61.18,214.00
             61.18,214.00 60.00,245.00 60.00,245.00
             60.01,248.72 59.93,251.33 60.93,255.00
             65.69,272.59 80.04,275.18 96.00,275.00
             101.84,274.93 107.43,273.82 113.00,272.12
             114.87,271.54 120.24,269.40 121.72,269.46
             123.98,269.55 126.25,271.79 128.01,273.11
             132.03,276.10 134.51,277.56 139.00,279.74
             149.06,284.63 160.84,286.98 172.00,287.00
             180.19,287.01 187.04,286.46 195.00,284.26
             198.13,283.39 206.56,279.76 209.00,280.11
             211.60,280.48 218.81,285.98 222.00,287.68
             229.04,291.42 239.03,293.90 247.00,294.00
             256.81,294.11 266.00,292.89 275.00,288.68
             320.97,267.17 323.48,198.76 280.00,172.07
             261.22,160.54 235.32,161.59 217.00,173.44
             213.42,175.75 208.35,180.06 205.44,183.17
             203.69,185.04 201.13,188.79 198.83,189.65
             197.01,190.34 184.96,187.83 182.00,187.42
             172.72,186.16 165.82,187.81 157.00,188.00
             157.00,188.00 157.00,125.00 157.00,125.00
             160.49,125.85 162.38,126.17 166.00,125.71
             167.99,125.46 171.18,124.79 173.00,124.01
             180.87,120.61 181.09,115.48 181.00,108.00
             180.96,104.83 180.91,103.00 179.64,100.00
             179.64,100.00 172.49,88.00 172.49,88.00
             170.55,84.40 169.05,80.29 166.39,77.11
             163.34,73.46 161.30,73.44 157.00,72.55
             144.68,70.01 144.08,71.10 132.00,73.08
             132.00,73.08 111.00,75.72 111.00,75.72
             106.90,76.26 102.68,76.19 99.57,79.42
             95.82,83.30 95.74,90.90 96.04,96.00
             96.29,100.15 97.65,102.23 99.00,106.00 Z
           M 163.94,117.00
           C 162.41,109.74 165.44,108.22 163.94,105.22
             162.33,102.29 159.33,103.16 157.43,105.22
             154.61,108.19 154.18,113.10 154.00,117.00
             147.74,115.53 141.12,110.70 138.91,115.18
             136.94,119.19 144.11,121.85 146.43,124.68
             148.37,127.05 147.99,130.11 148.00,133.00
             148.00,133.00 148.00,185.00 148.00,185.00
             147.87,192.35 146.81,190.66 136.00,196.18
             132.81,197.82 127.67,201.80 132.32,205.35
             135.07,207.45 138.45,205.06 141.00,203.78
             148.19,200.16 154.10,198.41 162.00,197.08
             173.19,195.20 186.39,196.07 197.00,200.31
             201.78,202.22 205.66,203.92 210.00,206.74
             211.86,207.96 214.61,210.25 216.94,209.98
             219.76,209.64 221.52,206.39 219.38,203.30
             217.45,200.50 212.07,197.50 209.00,196.00
             210.95,189.37 217.21,184.31 223.00,180.87
             237.19,172.40 252.57,170.60 268.00,176.82
             297.63,188.77 309.05,223.47 297.19,252.00
             293.94,259.81 288.70,267.87 281.99,273.10
             272.95,280.15 264.41,283.73 253.00,284.83
             239.37,286.15 229.06,281.22 218.00,274.00
             218.00,274.00 218.00,272.00 218.00,272.00
             220.30,270.18 223.73,267.53 220.63,264.48
             219.93,263.79 218.96,263.33 217.98,263.25
             215.71,263.05 204.28,270.58 201.00,272.11
             192.05,276.29 180.84,278.11 171.00,278.00
             160.23,277.87 147.19,274.14 138.00,268.54
             133.79,265.98 127.10,259.23 123.99,258.44
             118.98,257.18 111.00,261.66 106.00,263.25
             99.25,265.41 81.89,266.99 76.10,262.49
             72.28,259.51 70.02,253.60 68.90,249.00
             67.81,244.51 67.95,240.57 68.00,236.00
             68.09,228.98 72.08,202.91 73.92,196.00
             73.92,196.00 77.24,186.00 77.24,186.00
             77.24,186.00 78.79,178.00 78.79,178.00
             78.79,178.00 86.77,156.00 86.77,156.00
             86.77,156.00 90.42,145.00 90.42,145.00
             90.42,145.00 104.76,113.00 104.76,113.00
             106.24,109.96 108.23,106.50 107.66,103.00
             107.08,99.45 100.79,92.08 106.51,86.56
             108.99,84.17 116.50,83.48 120.00,83.00
             120.00,83.00 132.00,81.71 132.00,81.71
             140.95,80.53 150.98,76.77 158.89,83.42
             162.16,86.16 163.54,90.39 165.61,94.00
             168.94,99.77 176.67,109.01 168.87,114.66
             167.38,115.74 165.68,116.33 163.94,117.00 Z" />
</svg>
