<?xml version="1.0" encoding="UTF-8" standalone="no"?>
<!DOCTYPE svg PUBLIC "-//W3C//DTD SVG 20010904//EN"
              "http://www.w3.org/TR/2001/REC-SVG-20010904/DTD/svg10.dtd">

<svg xmlns="http://www.w3.org/2000/svg"
     width="4.06667in" height="4.06667in"
     viewBox="0 0 366 366">
  <path id="Auswahl"
        fill="black" stroke="black" stroke-width="1"
        d="M 239.00,78.00
           C 239.00,78.00 239.00,27.00 239.00,27.00
             239.00,24.52 239.19,21.27 237.98,19.06
             235.76,15.01 232.04,15.00 228.00,15.00
             223.31,15.00 210.94,18.48 206.00,20.05
             206.00,20.05 198.00,23.20 198.00,23.20
             198.00,23.20 185.00,27.04 185.00,27.04
             185.00,27.04 166.00,33.38 166.00,33.38
             166.00,33.38 158.00,36.54 158.00,36.54
             158.00,36.54 103.00,54.83 103.00,54.83
             103.00,54.83 91.00,58.46 91.00,58.46
             91.00,58.46 83.00,61.54 83.00,61.54
             83.00,61.54 46.00,73.83 46.00,73.83
             41.46,75.57 30.36,77.13 28.02,81.14
             26.80,83.23 27.00,86.62 27.00,89.00
             27.00,89.00 27.00,339.00 27.00,339.00
             27.02,348.68 28.32,349.98 38.00,350.00
             38.00,350.00 97.00,350.00 97.00,350.00
             97.00,350.00 328.00,350.00 328.00,350.00
             330.77,349.99 334.44,350.29 336.69,348.40
             338.97,346.47 338.95,343.73 339.00,341.00
             339.00,341.00 339.00,319.00 339.00,319.00
             339.00,319.00 339.00,218.00 339.00,218.00
             339.00,218.00 339.00,89.00 339.00,89.00
             338.99,86.23 339.29,82.56 337.40,80.31
             334.36,76.70 319.90,78.00 315.00,78.00
             315.00,78.00 239.00,78.00 239.00,78.00 Z
           M 220.00,38.00
           C 220.00,38.00 220.00,78.00 220.00,78.00
             220.00,78.00 103.00,78.00 103.00,78.00
             103.00,78.00 117.00,72.41 117.00,72.41
             117.00,72.41 126.00,68.97 126.00,68.97
             126.00,68.97 139.00,65.06 139.00,65.06
             139.00,65.06 220.00,38.00 220.00,38.00 Z
           M 320.00,98.00
           C 320.00,98.00 320.00,331.00 320.00,331.00
             320.00,331.00 46.00,331.00 46.00,331.00
             46.00,331.00 46.00,98.00 46.00,98.00
             46.00,98.00 320.00,98.00 320.00,98.00 Z
           M 133.00,123.43
           C 115.78,126.40 100.26,134.87 90.66,150.00
             83.23,161.69 81.91,182.90 85.78,196.00
             86.73,199.22 88.75,203.08 90.43,206.00
             95.36,214.58 100.80,220.21 108.00,226.91
             111.42,230.10 116.83,233.98 119.02,238.00
             121.00,241.64 120.99,246.95 121.00,251.00
             121.00,251.00 121.00,283.00 121.00,283.00
             121.00,285.44 120.87,288.73 121.74,291.00
             124.98,299.46 135.27,299.91 143.00,300.00
             143.00,300.00 232.00,300.00 232.00,300.00
             238.34,299.99 245.15,299.91 249.77,294.89
             253.44,290.91 253.94,285.17 254.00,280.00
             254.00,280.00 254.00,242.00 254.00,242.00
             254.00,239.95 253.89,236.90 254.60,235.01
             255.77,231.92 258.64,229.98 261.00,227.83
             264.48,224.66 270.53,218.66 273.32,215.00
             279.24,207.23 280.63,198.24 282.25,189.00
             282.96,185.00 283.81,185.11 283.98,180.00
             284.21,173.39 283.58,173.78 282.36,168.00
             281.62,164.53 281.78,162.65 280.40,159.00
             276.28,148.08 264.70,137.17 254.00,132.71
             243.98,128.53 233.65,127.98 223.00,128.00
             216.41,128.01 209.08,129.86 203.00,132.42
             200.57,133.45 191.22,137.74 189.29,137.68
             189.29,137.68 171.00,128.02 171.00,128.02
             159.13,123.20 145.68,121.86 133.00,123.43 Z
           M 166.00,160.00
           C 166.00,160.00 154.60,177.00 154.60,177.00
             149.16,186.54 152.71,198.93 165.00,198.99
             166.93,199.00 169.19,198.95 171.00,198.26
             178.13,195.54 183.44,185.55 188.21,180.00
             198.71,167.78 212.26,157.63 229.00,158.01
             242.94,158.34 255.08,166.74 253.53,182.00
             251.73,199.78 240.51,206.79 225.00,211.74
             216.33,214.51 207.13,215.95 198.00,216.00
             198.00,216.00 183.00,217.37 183.00,217.37
             173.85,216.90 161.49,218.36 161.02,230.00
             160.46,243.86 170.25,246.98 182.00,247.00
             182.00,247.00 208.00,245.74 208.00,245.74
             208.00,245.74 225.00,243.00 225.00,243.00
             225.00,243.00 225.00,271.00 225.00,271.00
             225.00,271.00 159.00,271.00 159.00,271.00
             156.70,271.00 152.59,271.38 151.02,269.40
             149.77,267.81 150.00,263.99 150.00,262.00
             150.00,262.00 150.00,236.00 150.00,236.00
             149.99,231.04 149.98,226.54 147.62,222.00
             144.36,215.72 139.35,213.06 134.00,208.80
             126.08,202.50 118.22,195.78 114.47,186.00
             108.13,169.51 126.50,152.70 142.00,152.05
             150.32,151.69 158.76,156.48 166.00,160.00 Z" />
</svg>
