<?xml version="1.0" encoding="UTF-8" standalone="no"?>
<!DOCTYPE svg PUBLIC "-//W3C//DTD SVG 20010904//EN"
              "http://www.w3.org/TR/2001/REC-SVG-20010904/DTD/svg10.dtd">

<svg xmlns="http://www.w3.org/2000/svg"
     width="1.22in" height="1.22in"
     viewBox="0 0 366 366">
  <path id="Auswahl"
        fill="black" stroke="black" stroke-width="1"
        d="M 232.00,62.00
           C 232.00,62.00 232.00,19.00 232.00,19.00
             232.00,16.82 232.21,13.16 230.98,11.31
             227.51,6.12 213.75,13.20 209.00,14.83
             209.00,14.83 183.00,24.46 183.00,24.46
             183.00,24.46 141.00,39.58 141.00,39.58
             141.00,39.58 92.00,57.22 92.00,57.22
             89.23,58.21 78.39,61.69 77.02,63.56
             75.76,65.27 76.00,68.91 76.00,71.00
             76.00,71.00 76.00,343.00 76.00,343.00
             76.00,345.30 75.62,349.41 77.60,350.98
             79.49,352.48 87.34,352.00 90.00,352.00
             90.00,352.00 123.00,352.00 123.00,352.00
             123.00,352.00 279.00,352.00 279.00,352.00
             280.99,352.00 284.81,352.23 286.40,350.98
             288.10,349.63 287.96,346.95 288.00,345.00
             288.00,345.00 288.00,330.00 288.00,330.00
             288.00,330.00 288.00,262.00 288.00,262.00
             288.00,262.00 288.00,71.00 288.00,71.00
             287.99,64.26 288.49,62.14 281.00,62.00
             281.00,62.00 232.00,62.00 232.00,62.00 Z
           M 224.00,18.00
           C 224.00,18.00 224.00,62.00 224.00,62.00
             224.00,62.00 103.00,62.00 103.00,62.00
             103.00,62.00 116.00,56.69 116.00,56.69
             116.00,56.69 150.00,44.31 150.00,44.31
             150.00,44.31 176.00,35.09 176.00,35.09
             176.00,35.09 224.00,18.00 224.00,18.00 Z
           M 281.00,70.00
           C 281.00,70.00 281.00,345.00 281.00,345.00
             281.00,345.00 83.00,345.00 83.00,345.00
             83.00,345.00 83.00,70.00 83.00,70.00
             83.00,70.00 281.00,70.00 281.00,70.00 Z
           M 131.00,98.43
           C 123.45,99.66 119.73,100.29 113.00,104.47
             92.46,117.21 89.67,140.79 104.47,159.00
             116.48,173.78 122.97,169.73 123.00,184.00
             123.00,184.00 123.00,209.00 123.00,209.00
             123.02,219.66 124.34,220.98 135.00,221.00
             135.00,221.00 201.00,221.00 201.00,221.00
             204.40,220.99 207.98,221.36 210.57,218.69
             212.93,216.25 212.95,213.16 213.00,210.00
             213.00,210.00 213.00,180.00 213.00,180.00
             213.03,166.66 217.10,173.10 226.47,161.00
             234.45,150.69 238.04,133.03 232.18,121.00
             224.22,104.66 202.58,98.79 186.00,103.77
             186.00,103.77 169.00,111.06 169.00,111.06
             167.07,110.91 159.75,105.34 157.00,103.89
             149.46,99.90 139.50,97.40 131.00,98.43 Z
           M 160.00,120.00
           C 160.00,120.00 148.14,136.00 148.14,136.00
             146.40,139.04 145.55,142.74 149.23,144.81
             155.23,148.19 159.51,138.08 166.09,131.00
             177.26,118.96 190.09,110.85 207.00,115.04
             229.01,120.50 225.96,146.85 213.83,157.32
             200.68,168.67 174.54,168.97 158.00,169.00
             155.53,169.00 152.26,168.81 150.08,170.02
             145.57,172.49 145.73,177.36 150.08,179.83
             152.56,181.21 156.24,181.00 159.00,181.00
             168.84,181.02 175.09,181.05 185.00,179.71
             185.00,179.71 201.00,177.00 201.00,177.00
             201.00,177.00 201.00,209.00 201.00,209.00
             201.00,209.00 135.00,209.00 135.00,209.00
             135.00,209.00 135.00,178.00 135.00,178.00
             134.96,174.84 134.93,171.85 133.15,169.09
             131.10,165.94 126.96,163.82 124.00,161.48
             116.80,155.81 107.58,146.68 107.04,137.00
             106.25,122.63 118.96,110.61 133.00,110.04
             143.54,109.61 151.94,113.59 160.00,120.00 Z
           M 271.00,256.00
           C 271.00,256.00 271.00,252.00 271.00,252.00
             271.00,252.00 252.00,252.00 252.00,252.00
             252.00,252.00 241.00,252.96 241.00,252.96
             241.00,252.96 227.00,252.96 227.00,252.96
             227.00,252.96 227.00,248.00 227.00,248.00
             227.00,248.00 271.00,248.00 271.00,248.00
             271.00,248.00 271.00,244.00 271.00,244.00
             271.00,244.00 227.00,244.00 227.00,244.00
             227.00,244.00 227.00,240.00 227.00,240.00
             227.00,240.00 271.00,240.00 271.00,240.00
             271.00,240.00 271.00,236.00 271.00,236.00
             271.00,236.00 227.00,236.00 227.00,236.00
             227.00,236.00 227.00,231.04 227.00,231.04
             227.00,231.04 240.00,231.04 240.00,231.04
             240.00,231.04 252.00,232.00 252.00,232.00
             252.00,232.00 271.00,232.00 271.00,232.00
             271.00,232.00 271.00,228.00 271.00,228.00
             271.00,228.00 232.00,224.01 232.00,224.01
             217.25,224.37 216.81,236.76 200.00,237.91
             190.90,238.54 188.83,235.02 177.00,235.00
             177.00,235.00 119.00,235.00 119.00,235.00
             116.04,235.01 112.65,234.73 110.19,236.60
             106.24,239.52 106.28,245.42 110.19,247.83
             112.50,249.22 116.37,249.00 119.00,249.00
             119.00,249.00 179.00,249.00 179.00,249.00
             179.00,249.00 197.00,247.04 197.00,247.04
             202.85,246.81 207.96,247.85 213.00,250.95
             217.57,253.77 221.64,258.39 227.00,259.61
             234.85,261.40 260.90,256.46 271.00,256.00 Z
           M 114.60,272.02
           C 112.83,274.50 113.06,274.95 113.00,278.00
             112.96,280.23 112.68,285.70 114.02,287.40
             115.37,289.10 118.05,288.96 120.00,289.00
             120.00,289.00 137.00,289.00 137.00,289.00
             137.00,289.00 235.00,289.00 235.00,289.00
             241.74,288.99 243.86,289.49 244.00,282.00
             244.04,279.77 244.32,274.30 242.98,272.60
             241.63,270.90 238.95,271.04 237.00,271.00
             237.00,271.00 216.00,271.00 216.00,271.00
             216.00,271.00 146.00,271.00 146.00,271.00
             139.51,271.00 119.40,269.98 114.60,272.02 Z
           M 236.00,279.00
           C 236.00,279.00 236.00,281.00 236.00,281.00
             236.00,281.00 121.00,281.00 121.00,281.00
             121.00,281.00 121.00,279.00 121.00,279.00
             121.00,279.00 236.00,279.00 236.00,279.00 Z
           M 128.60,297.02
           C 126.44,300.03 126.98,302.38 127.00,306.00
             127.01,307.82 126.85,310.93 128.02,312.40
             129.37,314.10 132.05,313.96 134.00,314.00
             134.00,314.00 149.00,314.00 149.00,314.00
             149.00,314.00 219.00,314.00 219.00,314.00
             226.72,313.98 227.95,314.13 228.00,306.00
             228.01,303.87 228.29,299.26 226.98,297.60
             224.96,295.05 210.68,296.00 207.00,296.00
             207.00,296.00 153.00,296.00 153.00,296.00
             147.35,296.00 133.08,295.11 128.60,297.02 Z
           M 220.00,304.00
           C 220.00,304.00 220.00,306.00 220.00,306.00
             220.00,306.00 135.00,306.00 135.00,306.00
             135.00,306.00 135.00,304.00 135.00,304.00
             135.00,304.00 220.00,304.00 220.00,304.00 Z" />
</svg>
